<svg xmlns="http://www.w3.org/2000/svg" viewBox="0 0 500 500"><g id="freepik--Device--inject-113"><g id="freepik--device--inject-113"><g id="freepik--Mobile--inject-113"><path d="M217.44,135.29,434.92,335.23c5.46,5,4.47,10.19,3.65,14.82S434.94,361,429.82,364L298.7,439.66c-5.12,2.95-12.48,2.4-16.43-1.23L64.8,238.49c-4-3.63-4-9.23-3.18-13.87s3.15-11.89,8.28-14.85L201,134.07C206.14,131.11,211.94,130.23,217.44,135.29Z" style="fill:#37474f"></path><path d="M210.31,141.22,75.48,219.06,293.9,419.81l-3.85,21.71a13,13,0,0,1-7.78-3.09L64.8,238.49c-4-3.63-4-9.23-3.18-13.87s3.15-11.89,8.28-14.85L201,134.07c3.2-1.85,7-3.09,10.91-2l-.11.67Z" style="fill:#263238"></path><path d="M432.59,336.3,215.49,136.7c-3.14-2.88-9-3.31-13.07-1l-128,73.91c-5.51,3.17-6.54,9-2.3,12.87L287.88,420.86c2.76,2.53,7.95,2.92,11.53.84l131.5-75.91C435,343.45,435.73,339.18,432.59,336.3Z" style="fill:#455a64"></path><path d="M131.51,282.24a8.52,8.52,0,0,1,2,7,3.13,3.13,0,0,1-1.31,2.31c-.44.24-2.11,1.24-2.56,1.49a1.91,1.91,0,0,1-2.28-.51l-17.28-15.89a8.49,8.49,0,0,1-2-7,3.26,3.26,0,0,1,1.23-2.26c.46-.29,2.19-1.28,2.64-1.54a1.91,1.91,0,0,1,2.28.51Z" style="fill:#455a64"></path><path d="M129,283.71l-17.29-15.89c-1.56-1.43-3.17-.62-3.6,1.82a8.52,8.52,0,0,0,2,7l17.29,15.89c1.56,1.43,3.17.62,3.6-1.82A8.45,8.45,0,0,0,129,283.71Z" style="fill:#37474f"></path><path d="M101.25,254.43a8.48,8.48,0,0,1,2,7,3.13,3.13,0,0,1-1.32,2.3l-2.56,1.5a1.92,1.92,0,0,1-2.27-.51L79.85,248.83a8.51,8.51,0,0,1-2-7A3.21,3.21,0,0,1,79,239.57c.46-.29,2.19-1.29,2.64-1.54a1.91,1.91,0,0,1,2.28.5Z" style="fill:#455a64"></path><path d="M98.7,255.9,81.41,240c-1.55-1.43-3.17-.62-3.6,1.81a8.51,8.51,0,0,0,2,7l17.29,15.89c1.55,1.43,3.16.61,3.6-1.82A8.48,8.48,0,0,0,98.7,255.9Z" style="fill:#37474f"></path><path d="M219,147.46,421.72,333.85c3,2.75,2.28,6.82-1.6,9l-119,68.69c-3.87,2.25-9.44,1.84-12.45-.92L84.52,223a5.06,5.06,0,0,1-.25-7.61c.18-.18.34-.35.53-.52a9.34,9.34,0,0,1,1.32-.92l33.47-19.32,2.18-1.26a3.48,3.48,0,0,1,3.86.29,3.64,3.64,0,0,0,4,.2l39-22.52c1.27-.74,1.58-2,.65-2.88a1.82,1.82,0,0,1,.49-2.82l32.74-18.9.69-.4C208.12,143.46,215.21,144,219,147.46Z"></path><path d="M124.64,199.18a3.48,3.48,0,0,0-3.86-.28l-2.18,1.26L85.13,219.48a9.34,9.34,0,0,0-1.32.92c-.19.16-.35.34-.53.51s-.09.13-.15.19A6.08,6.08,0,0,0,84.52,223L288.7,410.67c3,2.76,8.58,3.17,12.45.92l119-68.69a8,8,0,0,0,2-1.6,5.88,5.88,0,0,0-1.39-1.87L218,153c-3.77-3.48-10.86-4-15.76-1.18l-.69.41-31.88,18.4-.84,4.72a2.27,2.27,0,0,1-1.16,1.48l-39,22.51A3.62,3.62,0,0,1,124.64,199.18Z" style="fill:#263238"></path><path d="M177.18,207.51h0l-1.91-1.75a2.37,2.37,0,0,0-2.61-.33l-2.57,1.48a1.13,1.13,0,0,0-.15,1.93l1.91,1.75h0a.87.87,0,0,0-.12,1.48l3.85,3.53a1.81,1.81,0,0,0,2,.26l5.38-3.1a.87.87,0,0,0,.11-1.48l-3.84-3.53A1.82,1.82,0,0,0,177.18,207.51Zm-6.66,1a.65.65,0,0,1,.08-1.1l2.57-1.48a1.34,1.34,0,0,1,1.49.19l1.91,1.75-4.15,2.39Z" style="fill:#fafafa"></path><path d="M188.46,263.53c.41.38.35.73-.18,1l-.7.4a1.1,1.1,0,0,1-1.42-.1l-16.78-15.43-2.66,7.34c-.19.48-.6.66-1.24.55l-.8-.13a1.05,1.05,0,0,1-.64-.32.52.52,0,0,1-.08-.56l3.16-8.74a1.07,1.07,0,0,1,.3-.43,4.39,4.39,0,0,1,.45-.3l.69-.4a1.11,1.11,0,0,1,1.43.11Z" style="fill:#fafafa"></path><path d="M180.16,248.09a7.22,7.22,0,0,1-1.49-2.13,5.09,5.09,0,0,1-.46-2.58,5.66,5.66,0,0,1,1.06-2.72,9.17,9.17,0,0,1,3-2.57,14.08,14.08,0,0,1,4-1.61,12.12,12.12,0,0,1,3.66-.21,9.89,9.89,0,0,1,3.18.9,11.17,11.17,0,0,1,2.56,1.73,6.48,6.48,0,0,1,2.11,3.42,10.34,10.34,0,0,1-.21,4.29l-1.83,11.09L208,250.64a1.16,1.16,0,0,1,1.49.11l.42.39c.42.38.34.73-.22,1.05l-15,8.65a1.13,1.13,0,0,1-1.43-.11l-.42-.39a1.11,1.11,0,0,1-.35-.62,2.6,2.6,0,0,1,.08-1l2.16-12.17a16.07,16.07,0,0,0,.36-2.18,5.77,5.77,0,0,0-.1-1.65,3.73,3.73,0,0,0-.57-1.32,7.5,7.5,0,0,0-5.4-3.1,8.82,8.82,0,0,0-5.08,1.33c-1.68,1-2.63,2.07-2.83,3.3a4.54,4.54,0,0,0,1.22,3.7.64.64,0,0,1,.15.65.83.83,0,0,1-.34.43l-.73.42A1,1,0,0,1,180.16,248.09Z" style="fill:#fafafa"></path><path d="M208.1,237.44a.56.56,0,0,1,.21.55.86.86,0,0,1-.43.51l-1.76,1a1.1,1.1,0,0,1-1.42-.11l-1.35-1.24a.62.62,0,0,1-.24-.56.69.69,0,0,1,.39-.5l1.76-1a1.33,1.33,0,0,1,.78-.18,1.11,1.11,0,0,1,.71.29ZM218,246.5a.58.58,0,0,1,.21.55.82.82,0,0,1-.44.51l-1.75,1a1.1,1.1,0,0,1-1.42-.11l-1.35-1.24a.65.65,0,0,1-.25-.56.73.73,0,0,1,.4-.5l1.75-1a1.38,1.38,0,0,1,.79-.18,1.11,1.11,0,0,1,.7.29Z" style="fill:#fafafa"></path><path d="M218.79,217.44a1.17,1.17,0,0,1,1.49.11l.42.39a.58.58,0,0,1,.2.33,1.24,1.24,0,0,1,0,.33l-.74,10.84.73-.42a18.14,18.14,0,0,1,3.75-1.66,12.36,12.36,0,0,1,3.67-.58,9.88,9.88,0,0,1,3.45.62,9.59,9.59,0,0,1,3.06,1.92A6.23,6.23,0,0,1,236.7,232a4.57,4.57,0,0,1,0,2.74,6.82,6.82,0,0,1-1.63,2.65,13.16,13.16,0,0,1-3.07,2.36,17.43,17.43,0,0,1-4.06,1.74,15.23,15.23,0,0,1-3.8.57,11.1,11.1,0,0,1-3.26-.42,6.56,6.56,0,0,1-2.42-1.28.46.46,0,0,1-.18-.49.81.81,0,0,1,.41-.44l.51-.3a1.94,1.94,0,0,1,.68-.22,1.59,1.59,0,0,1,1,.25,6.62,6.62,0,0,0,2.48.83,9,9,0,0,0,2.48-.07,10.29,10.29,0,0,0,2.38-.68,17,17,0,0,0,2.14-1,11.28,11.28,0,0,0,2.34-1.73,5,5,0,0,0,1.25-1.88,3.09,3.09,0,0,0,0-2,4.57,4.57,0,0,0-1.36-2,6.23,6.23,0,0,0-4.61-1.81,11.85,11.85,0,0,0-5.33,1.73l-3.22,1.86a1.1,1.1,0,0,1-1.42-.11l-.42-.38a1,1,0,0,1-.29-.41,1.35,1.35,0,0,1-.06-.41l.68-10.63-11,6.37a1.11,1.11,0,0,1-1.43-.11l-.42-.39c-.43-.4-.38-.75.16-1.06Z" style="fill:#fafafa"></path><path d="M252.52,226.54c.42.38.36.73-.18,1l-.69.4a1.11,1.11,0,0,1-1.43-.11l-16.78-15.43-2.65,7.34a1,1,0,0,1-1.24.56l-.8-.13a1.06,1.06,0,0,1-.65-.33.54.54,0,0,1-.08-.56l3.16-8.74a1,1,0,0,1,.31-.42,2.12,2.12,0,0,1,.44-.3l.7-.41a1.11,1.11,0,0,1,1.42.11Z" style="fill:#fafafa"></path><path d="M189.73,293.32l93.6-54c2.52-1.45,6.14-1.19,8.08.6l19.38,17.82c1.94,1.78,1.48,4.41-1,5.87l-93.61,54a7.31,7.31,0,0,1-8.08-.6l-19.38-17.82C186.74,297.41,187.21,294.78,189.73,293.32Z" style="fill:#455a64"></path><path d="M224.64,325.43l93.61-54a7.28,7.28,0,0,1,8.08.6l19.38,17.81c1.94,1.79,1.47,4.42-1,5.87l-93.6,54.05c-2.52,1.45-6.14,1.18-8.08-.61L223.6,331.3C221.66,329.51,222.12,326.88,224.64,325.43Z" style="fill:#455a64"></path><path d="M259.56,357.54l93.6-54.05a7.33,7.33,0,0,1,8.09.6l19.37,17.82c1.95,1.79,1.48,4.42-1,5.87l-93.6,54a7.27,7.27,0,0,1-8.08-.6l-19.38-17.81C256.57,361.62,257,359,259.56,357.54Z" style="fill:#455a64"></path><path d="M129.91,185.19l17.87-10.33a3,3,0,0,1,3.33.17c.77.71.53,1.79-.53,2.4L132.7,187.76a3,3,0,0,1-3.33-.17C128.6,186.88,128.84,185.8,129.91,185.19Z" style="fill:#263238"></path><path d="M156.39,169.05a3.46,3.46,0,0,1,3.85.28,1.66,1.66,0,0,1-.49,2.8,3.48,3.48,0,0,1-3.86-.28A1.66,1.66,0,0,1,156.39,169.05Z" style="fill:#263238"></path></g><g style="opacity:0.15"><polygon points="302.31 224.06 276.42 200.26 223.13 350.37 249.02 374.17 302.31 224.06" style="fill:#fff"></polygon><path d="M380.1,302.07l-43.89-40.35L284.65,407l4.05,3.72c3,2.76,8.58,3.17,12.45.92l50.39-29.09Z" style="fill:#fff"></path><path d="M199.57,328.71l53.29-150.1L219,147.46c-3.77-3.47-10.86-4-15.76-1.17l-.69.4L182.8,158.08l-41.55,117Z" style="fill:#fff"></path></g><path d="M118.08,217.7a.38.38,0,0,1-.16-.09l-.51-.47-1.62.93a.19.19,0,0,1-.24,0l-.19-.18a.3.3,0,0,1-.08-.09l0-.11-.13-2.7a.34.34,0,0,1,0-.11.22.22,0,0,1,.1-.08l.22-.13a.36.36,0,0,1,.19-.05.31.31,0,0,1,.17.1l1.81,1.66.35-.21a.28.28,0,0,1,.18-.05.35.35,0,0,1,.17.09l.12.12a.17.17,0,0,1,.08.13s0,.08-.11.11l-.35.21.52.48s.08.09.07.13a.2.2,0,0,1-.11.12l-.28.16A.31.31,0,0,1,118.08,217.7Zm-1-1-1.29-1.18.12,1.86Z" style="fill:#fafafa"></path><path d="M119.69,216.3a3,3,0,0,1-1.67-.82,1.75,1.75,0,0,1-.71-1.37,1.54,1.54,0,0,1,.91-1.16,3.86,3.86,0,0,1,.72-.32,2.87,2.87,0,0,1,.68-.12.15.15,0,0,1,.1,0,.09.09,0,0,1,0,.06l.08.3a.06.06,0,0,1,0,.07l-.08,0a2.29,2.29,0,0,0-1,.31,1.05,1.05,0,0,0-.62.8,1.33,1.33,0,0,0,.55,1,2.29,2.29,0,0,0,1.21.63,1.9,1.9,0,0,0,1.18-.24,3.32,3.32,0,0,0,.36-.26,1.11,1.11,0,0,0,.24-.26l-.84-.77-.68.39a.24.24,0,0,1-.18,0,.22.22,0,0,1-.16-.09l-.12-.11c-.06-.05-.09-.09-.08-.13s0-.07.11-.11l1.07-.62a.3.3,0,0,1,.21-.05.34.34,0,0,1,.2.11l1.2,1.1a.31.31,0,0,1,.08.1.1.1,0,0,1,0,.09,2.22,2.22,0,0,1-1,1A2.83,2.83,0,0,1,119.69,216.3Z" style="fill:#fafafa"></path><path d="M133.11,208.27a.72.72,0,0,1-.22,1.21,1.51,1.51,0,0,1-1.66-.13.71.71,0,0,1,.22-1.2A1.49,1.49,0,0,1,133.11,208.27Z" style="fill:#fafafa"></path><path d="M130.26,207.06a2,2,0,0,0-1.17,2.18.45.45,0,0,0,.46.28h0c.29,0,.51-.2.46-.4a1.44,1.44,0,0,1,.82-1.54,3,3,0,0,1,2.25-.23.51.51,0,0,0,.63-.24h0c.06-.16-.05-.32-.26-.38A4.14,4.14,0,0,0,130.26,207.06Z" style="fill:#fafafa"></path><path d="M129.11,206a3.35,3.35,0,0,0-1.93,3.24c0,.18.21.31.46.31h0c.28,0,.49-.18.47-.38a2.72,2.72,0,0,1,1.56-2.64,5.41,5.41,0,0,1,3.9-.51.52.52,0,0,0,.61-.25h0c.06-.17-.08-.34-.31-.39A6.63,6.63,0,0,0,129.11,206Z" style="fill:#fafafa"></path><polygon points="100.63 228.35 99.64 227.43 101.36 226.44 102.36 227.35 100.63 228.35" style="fill:#fafafa"></polygon><polygon points="103.22 226.85 101.22 225.02 102.95 224.03 104.94 225.86 103.22 226.85" style="fill:#fafafa"></polygon><polygon points="105.8 225.36 102.81 222.61 104.54 221.62 107.53 224.37 105.8 225.36" style="fill:#fafafa"></polygon><polygon points="108.39 223.87 104.4 220.2 106.12 219.21 110.11 222.88 108.39 223.87" style="fill:#fafafa"></polygon><path d="M213.31,158.5a1.39,1.39,0,0,0-.93.1l-6.44,3.71c-.42.24-.41.74,0,1.13l1.81,1.67a2,2,0,0,0,.94.44,1.76,1.76,0,0,0,.45,0,1.13,1.13,0,0,0,.48-.13l6.44-3.71c.42-.24.41-.74,0-1.13l-1.81-1.67A1.83,1.83,0,0,0,213.31,158.5Zm-4.6,6.78a.78.78,0,0,1-.4-.21l-1.81-1.67c-.32-.29-.33-.68,0-.86l6.44-3.71a.72.72,0,0,1,.25-.07h.15a.75.75,0,0,1,.39.21l1.82,1.66c.31.29.32.69,0,.87l-6.44,3.7A.54.54,0,0,1,208.71,165.28Z" style="fill:#fafafa"></path><path d="M208,162.13l2.14,2-1,.58a.34.34,0,0,1-.31,0l-1.6-1.47c-.23-.21-.23-.51,0-.64Z" style="fill:#fafafa"></path><polygon points="208.49 161.86 209.7 161.16 211.84 163.13 210.63 163.83 208.49 161.86" style="fill:#fafafa"></polygon><polygon points="210.17 160.9 211.38 160.2 213.53 162.17 212.31 162.87 210.17 160.9" style="fill:#fafafa"></polygon><path d="M213.2,159.36l1.54,1.42c.29.26.16.6-.34.89l-.4.23-2.15-2,1-.55A.45.45,0,0,1,213.2,159.36Z" style="fill:#fafafa"></path><path d="M214.5,158.81c.18-.1.62.09,1,.43l.33.31c.38.35.54.71.37.83l-.31.2L214.18,159Z" style="fill:#fafafa"></path><polygon points="196.63 169.49 201.91 164.98 203.51 169.33 200.63 168.06 196.63 169.49" style="fill:#fafafa"></polygon></g></g><g id="freepik--Apps--inject-113"><g id="freepik--social-icon--inject-113"><path d="M43.5,324.73,67.26,311a8.2,8.2,0,0,1,7.38,0l3,1.74a8.13,8.13,0,0,1,3.69,6.38v27.45A8.13,8.13,0,0,1,77.64,353L53.88,366.69a8.2,8.2,0,0,1-7.38,0l-3-1.74a8.16,8.16,0,0,1-3.69-6.39V331.12A8.16,8.16,0,0,1,43.5,324.73Z" style="fill:#4CD6E5"></path><path d="M43.5,324.73,67.26,311a8.2,8.2,0,0,1,7.38,0l3,1.74a8.13,8.13,0,0,1,3.69,6.38v27.45A8.13,8.13,0,0,1,77.64,353L53.88,366.69a8.2,8.2,0,0,1-7.38,0l-3-1.74a8.16,8.16,0,0,1-3.69-6.39V331.12A8.16,8.16,0,0,1,43.5,324.73Z" style="fill:#fff;opacity:0.7000000000000001"></path><path d="M53.88,330.73,77.64,317c2-1.17,3.69-.22,3.69,2.13v27.45A8.13,8.13,0,0,1,77.64,353L53.88,366.69c-2,1.17-3.69.22-3.69-2.13V337.11A8.13,8.13,0,0,1,53.88,330.73Z" style="fill:#4CD6E5"></path><path d="M53.88,330.73,77.64,317c2-1.17,3.69-.22,3.69,2.13v27.45A8.13,8.13,0,0,1,77.64,353L53.88,366.69c-2,1.17-3.69.22-3.69-2.13V337.11A8.13,8.13,0,0,1,53.88,330.73Z" style="fill:#fff;opacity:0.55"></path><g id="freepik--Phone--inject-113"><path d="M74.92,342.92a2.28,2.28,0,0,0-2-1.81,2.75,2.75,0,0,1-.34-.1,2.5,2.5,0,0,0-3.06.73,9.07,9.07,0,0,0-1.21,2.73c-.14.42-.27.82-.4,1.14-.2.5-.35.49-.41.49C65.17,346,63.38,344.68,62,342c-.13-.24-.16-.52.12-1.18l.11-.27a11.33,11.33,0,0,0,1-3.12,6.86,6.86,0,0,0-.5-3.07l-.14-.41c-.37-1-.78-2.23-1.65-2.49-1-.3-2.14.9-2.75,2a14.17,14.17,0,0,0-1.64,6.68,12.13,12.13,0,0,0,.15,1.75,12.37,12.37,0,0,0,1.14,3.38A18.75,18.75,0,0,0,59,347.36a10.79,10.79,0,0,0,5.19,4.4,8.08,8.08,0,0,0,2.8.52h.48l.27,0a5.27,5.27,0,0,0,3.6-1.29,11.56,11.56,0,0,0,3.41-5.88A5.78,5.78,0,0,0,74.92,342.92Z" style="fill:#fafafa"></path></g><path d="M39.81,358.56A8.16,8.16,0,0,0,43.5,365l3,1.74a8.26,8.26,0,0,0,6.75.29c-1.74.66-3.06-.32-3.06-2.42V337.11a7.49,7.49,0,0,1,1.08-3.63l-10.38-6a7.46,7.46,0,0,0-1.08,3.63Z" style="fill:#4CD6E5"></path><path d="M39.81,358.56A8.16,8.16,0,0,0,43.5,365l3,1.74a8.26,8.26,0,0,0,6.75.29c-1.74.66-3.06-.32-3.06-2.42V337.11a7.49,7.49,0,0,1,1.08-3.63l-10.38-6a7.46,7.46,0,0,0-1.08,3.63Z" style="fill:#fff;opacity:0.4"></path></g><g id="freepik--social-icon--inject-113"><path d="M43.5,81.26,67.26,67.54a8.14,8.14,0,0,1,7.38,0l3,1.73a8.16,8.16,0,0,1,3.69,6.39V103.1a8.16,8.16,0,0,1-3.69,6.39L53.88,123.21a8.14,8.14,0,0,1-7.38,0l-3-1.73a8.16,8.16,0,0,1-3.69-6.39V87.65A8.13,8.13,0,0,1,43.5,81.26Z" style="fill:#4CD6E5"></path><path d="M43.5,81.26,67.26,67.54a8.14,8.14,0,0,1,7.38,0l3,1.73a8.16,8.16,0,0,1,3.69,6.39V103.1a8.16,8.16,0,0,1-3.69,6.39L53.88,123.21a8.14,8.14,0,0,1-7.38,0l-3-1.73a8.16,8.16,0,0,1-3.69-6.39V87.65A8.13,8.13,0,0,1,43.5,81.26Z" style="fill:#fff;opacity:0.7000000000000001"></path><path d="M53.88,87.25,77.64,73.53c2-1.18,3.69-.22,3.69,2.13V103.1a8.16,8.16,0,0,1-3.69,6.39L53.88,123.21c-2,1.18-3.69.22-3.69-2.13V93.64A8.16,8.16,0,0,1,53.88,87.25Z" style="fill:#4CD6E5"></path><path d="M53.88,87.25,77.64,73.53c2-1.18,3.69-.22,3.69,2.13V103.1a8.16,8.16,0,0,1-3.69,6.39L53.88,123.21c-2,1.18-3.69.22-3.69-2.13V93.64A8.16,8.16,0,0,1,53.88,87.25Z" style="fill:#fff;opacity:0.55"></path><path d="M39.81,115.09a8.16,8.16,0,0,0,3.69,6.39l3,1.73a8.26,8.26,0,0,0,6.75.3c-1.74.65-3.06-.33-3.06-2.43V93.64A7.53,7.53,0,0,1,51.27,90L40.89,84a7.53,7.53,0,0,0-1.08,3.64Z" style="fill:#4CD6E5"></path><path d="M39.81,115.09a8.16,8.16,0,0,0,3.69,6.39l3,1.73a8.26,8.26,0,0,0,6.75.3c-1.74.65-3.06-.33-3.06-2.43V93.64A7.53,7.53,0,0,1,51.27,90L40.89,84a7.53,7.53,0,0,0-1.08,3.64Z" style="fill:#fff;opacity:0.4"></path><path d="M58.78,92.23a.45.45,0,0,0-.61-.17l-1.28.77a.43.43,0,0,0-.16.6.41.41,0,0,0,.39.23.39.39,0,0,0,.21-.06l1.29-.77A.45.45,0,0,0,58.78,92.23Zm16.36-7a.86.86,0,0,0-.85,0l-3,1.72-.4-1.22a.85.85,0,0,0-.53-.61.87.87,0,0,0-.73.07l-8,4.64a2.08,2.08,0,0,0-.84,1.28l-.38,1.66a1.26,1.26,0,0,1-.42.73l-3,1.74a2.16,2.16,0,0,0-.9,1.8v16.28a1.17,1.17,0,0,0,.49,1.06.9.9,0,0,0,.38.1.88.88,0,0,0,.47-.13l17.32-10a2.19,2.19,0,0,0,.9-1.81V86.28A1.19,1.19,0,0,0,75.14,85.21ZM65.7,106.42c-2.75,1.58-5-.1-5-3.76s2.23-7.93,5-9.51,5,.1,5,3.76S68.44,104.83,65.7,106.42ZM72,90.76l-.78.46a1,1,0,0,1-.45.13,1,1,0,0,1-.83-.48,1,1,0,0,1,.35-1.32l.74-.43a1,1,0,0,1,1.32.35A.93.93,0,0,1,72,90.76Z" style="fill:#fff"></path></g><g id="freepik--social-icon--inject-113"><path d="M92.24,352.87,116,339.15a8.18,8.18,0,0,1,7.37,0l3,1.74a8.14,8.14,0,0,1,3.68,6.39v27.44a8.17,8.17,0,0,1-3.68,6.39l-23.77,13.72a8.2,8.2,0,0,1-7.38,0l-3-1.74a8.13,8.13,0,0,1-3.69-6.39V359.26A8.16,8.16,0,0,1,92.24,352.87Z" style="fill:#4CD6E5"></path><path d="M92.24,352.87,116,339.15a8.18,8.18,0,0,1,7.37,0l3,1.74a8.14,8.14,0,0,1,3.68,6.39v27.44a8.17,8.17,0,0,1-3.68,6.39l-23.77,13.72a8.2,8.2,0,0,1-7.38,0l-3-1.74a8.13,8.13,0,0,1-3.69-6.39V359.26A8.16,8.16,0,0,1,92.24,352.87Z" style="fill:#fff;opacity:0.7000000000000001"></path><path d="M130.07,347.28c0-2.36-1.65-3.31-3.68-2.13l-23.77,13.72a8.13,8.13,0,0,0-3.69,6.39V392.7c0,2.35,1.65,3.3,3.69,2.13l23.77-13.72a8.17,8.17,0,0,0,3.68-6.39Z" style="fill:#4CD6E5"></path><path d="M130.07,347.28c0-2.36-1.65-3.31-3.68-2.13l-23.77,13.72a8.13,8.13,0,0,0-3.69,6.39V392.7c0,2.35,1.65,3.3,3.69,2.13l23.77-13.72a8.17,8.17,0,0,0,3.68-6.39Z" style="fill:#fff;opacity:0.55"></path><path d="M88.55,386.7a8.13,8.13,0,0,0,3.69,6.39l3,1.74a8.3,8.3,0,0,0,6.75.3c-1.74.65-3.06-.33-3.06-2.43V365.26a7.64,7.64,0,0,1,1.08-3.64l-10.38-6a7.49,7.49,0,0,0-1.08,3.63Z" style="fill:#4CD6E5"></path><path d="M88.55,386.7a8.13,8.13,0,0,0,3.69,6.39l3,1.74a8.3,8.3,0,0,0,6.75.3c-1.74.65-3.06-.33-3.06-2.43V365.26a7.64,7.64,0,0,1,1.08-3.64l-10.38-6a7.49,7.49,0,0,0-1.08,3.63Z" style="fill:#fff;opacity:0.4"></path><path d="M123.62,355.38a.8.8,0,0,0-.84,0l-17,9.8a1.88,1.88,0,0,0-.83,1.54v16.81a.44.44,0,0,0,0,.32.92.92,0,0,0,.4.72.69.69,0,0,0,.37.1.87.87,0,0,0,.46-.13l17-9.8a1.9,1.9,0,0,0,.83-1.55v-17A1,1,0,0,0,123.62,355.38Zm-1.32,1.32-6.72,14.22a2.92,2.92,0,0,1-1.66,1.73.6.6,0,0,1-.57-.17l-6.9-6.64Zm-16.45,10.05a1,1,0,0,1,0-.24l5.57,5.36L105.85,382ZM122.78,374l-16.93,9.77v0l6.26-11.25.64.61a1.48,1.48,0,0,0,1,.43l.29,0a3.67,3.67,0,0,0,2.29-2.22l.79-1.67,6,3.85A1,1,0,0,1,122.78,374Zm.39-1.56-5.63-3.63,5.63-11.93Zm0-16.16-.06-.06.06,0v.09Z" style="fill:#fafafa"></path></g><g id="freepik--social-icon--inject-113"><path d="M141,381l23.77-13.72a8.14,8.14,0,0,1,7.38,0l3,1.73a8.16,8.16,0,0,1,3.69,6.39v27.44a8.16,8.16,0,0,1-3.69,6.39L151.37,423a8.14,8.14,0,0,1-7.38,0l-3-1.73a8.17,8.17,0,0,1-3.68-6.39V387.41A8.14,8.14,0,0,1,141,381Z" style="fill:#4CD6E5"></path><path d="M141,381l23.77-13.72a8.14,8.14,0,0,1,7.38,0l3,1.73a8.16,8.16,0,0,1,3.69,6.39v27.44a8.16,8.16,0,0,1-3.69,6.39L151.37,423a8.14,8.14,0,0,1-7.38,0l-3-1.73a8.17,8.17,0,0,1-3.68-6.39V387.41A8.14,8.14,0,0,1,141,381Z" style="fill:#fff;opacity:0.7000000000000001"></path><path d="M178.82,375.42c0-2.35-1.65-3.31-3.69-2.13L151.37,387a8.16,8.16,0,0,0-3.69,6.39v27.44c0,2.35,1.65,3.31,3.69,2.13l23.76-13.72a8.16,8.16,0,0,0,3.69-6.39Z" style="fill:#4CD6E5"></path><path d="M178.82,375.42c0-2.35-1.65-3.31-3.69-2.13L151.37,387a8.16,8.16,0,0,0-3.69,6.39v27.44c0,2.35,1.65,3.31,3.69,2.13l23.76-13.72a8.16,8.16,0,0,0,3.69-6.39Z" style="fill:#fff;opacity:0.55"></path><path d="M170.77,380.87a.45.45,0,0,0-.48.1l-10.51,10.74a.43.43,0,0,0-.13.3v14.12a2.12,2.12,0,0,0-1.41.29c-1.56.91-2.79,3.46-2.79,5.82a3.26,3.26,0,0,0,1.25,2.95,1.6,1.6,0,0,0,.85.23,2.25,2.25,0,0,0,1.13-.33c1.47-.84,2.67-3.19,2.78-5.49V397.14l7.69-7.8.07,6.6a2,2,0,0,0-1.4.29c-1.56.9-2.79,3.46-2.79,5.82a3.26,3.26,0,0,0,1.25,2.95,1.94,1.94,0,0,0,2-.1c1.47-.85,2.67-3.2,2.78-5.49V381.28A.43.43,0,0,0,170.77,380.87Z" style="fill:#fafafa"></path><path d="M137.3,414.85a8.17,8.17,0,0,0,3.68,6.39l3,1.73a8.26,8.26,0,0,0,6.75.3c-1.74.65-3.06-.33-3.06-2.43V393.4a7.53,7.53,0,0,1,1.08-3.64l-10.38-6a7.53,7.53,0,0,0-1.08,3.64Z" style="fill:#4CD6E5"></path><path d="M137.3,414.85a8.17,8.17,0,0,0,3.68,6.39l3,1.73a8.26,8.26,0,0,0,6.75.3c-1.74.65-3.06-.33-3.06-2.43V393.4a7.53,7.53,0,0,1,1.08-3.64l-10.38-6a7.53,7.53,0,0,0-1.08,3.64Z" style="fill:#fff;opacity:0.4"></path></g></g><g id="freepik--Icons--inject-113"><g id="freepik--social-icon--inject-113"><path d="M462.26,57.1,438.49,43.38a8.14,8.14,0,0,0-7.38,0l-3,1.73a8.16,8.16,0,0,0-3.69,6.39V78.94a8.13,8.13,0,0,0,3.69,6.39l23.76,13.72a8.14,8.14,0,0,0,7.38,0l3-1.73a8.17,8.17,0,0,0,3.68-6.39V63.49A8.17,8.17,0,0,0,462.26,57.1Z" style="fill:#4CD6E5"></path><path d="M462.26,57.1,438.49,43.38a8.14,8.14,0,0,0-7.38,0l-3,1.73a8.16,8.16,0,0,0-3.69,6.39V78.94a8.13,8.13,0,0,0,3.69,6.39l23.76,13.72a8.14,8.14,0,0,0,7.38,0l3-1.73a8.17,8.17,0,0,0,3.68-6.39V63.49A8.17,8.17,0,0,0,462.26,57.1Z" style="fill:#fff;opacity:0.7000000000000001"></path><path d="M451.87,63.09,428.11,49.37c-2-1.17-3.69-.22-3.69,2.13V78.94a8.13,8.13,0,0,0,3.69,6.39l23.76,13.72c2,1.18,3.69.23,3.69-2.13V69.48A8.16,8.16,0,0,0,451.87,63.09Z" style="fill:#4CD6E5"></path><path d="M451.87,63.09,428.11,49.37c-2-1.17-3.69-.22-3.69,2.13V78.94a8.13,8.13,0,0,0,3.69,6.39l23.76,13.72c2,1.18,3.69.23,3.69-2.13V69.48A8.16,8.16,0,0,0,451.87,63.09Z" style="fill:#fff;opacity:0.55"></path><path d="M465.94,90.93a8.17,8.17,0,0,1-3.68,6.39l-3,1.73a8.22,8.22,0,0,1-6.75.3c1.74.66,3.06-.32,3.06-2.43V69.48a7.49,7.49,0,0,0-1.08-3.63l10.38-6a7.53,7.53,0,0,1,1.08,3.64Z" style="fill:#4CD6E5"></path><path d="M465.94,90.93a8.17,8.17,0,0,1-3.68,6.39l-3,1.73a8.22,8.22,0,0,1-6.75.3c1.74.66,3.06-.32,3.06-2.43V69.48a7.49,7.49,0,0,0-1.08-3.63l10.38-6a7.53,7.53,0,0,1,1.08,3.64Z" style="fill:#fff;opacity:0.4"></path><path d="M445.18,82.26c1.66-1.91,2.5-5,2.38-8.53a4.21,4.21,0,0,0,1.95-1.57,5.6,5.6,0,0,1-2.24-.47A2.43,2.43,0,0,0,449,69.8a4.86,4.86,0,0,1-2.48-.17,7.91,7.91,0,0,0-2.86-3.29c-2.52-1.46-4.37.61-3.8,4.2-3.25-2.09-6.13-5.83-8.05-10.09-1,1.75-.53,5.09,1.21,7.65a6.66,6.66,0,0,1-1.77-1.68,9.75,9.75,0,0,0,3.13,7,4.2,4.2,0,0,1-1.76-.93,9.13,9.13,0,0,0,3.65,5.72c-1.65.77-3.72.34-5.79-1.18a19.68,19.68,0,0,0,6,5.8c3.86,2.23,6.83,1.62,8.72-.56" style="fill:#fff"></path></g><g id="freepik--social-icon--inject-113"><path d="M462.26,119.31l-23.77-13.72a8.2,8.2,0,0,0-7.38,0l-3,1.74a8.13,8.13,0,0,0-3.69,6.38v27.45a8.13,8.13,0,0,0,3.69,6.38l23.76,13.73a8.2,8.2,0,0,0,7.38,0l3-1.74a8.14,8.14,0,0,0,3.68-6.39V125.7A8.17,8.17,0,0,0,462.26,119.31Z" style="fill:#4CD6E5"></path><path d="M462.26,119.31l-23.77-13.72a8.2,8.2,0,0,0-7.38,0l-3,1.74a8.13,8.13,0,0,0-3.69,6.38v27.45a8.13,8.13,0,0,0,3.69,6.38l23.76,13.73a8.2,8.2,0,0,0,7.38,0l3-1.74a8.14,8.14,0,0,0,3.68-6.39V125.7A8.17,8.17,0,0,0,462.26,119.31Z" style="fill:#fff;opacity:0.7000000000000001"></path><path d="M424.42,113.71c0-2.35,1.65-3.3,3.69-2.12l23.76,13.72a8.13,8.13,0,0,1,3.69,6.38v27.45c0,2.35-1.65,3.3-3.69,2.13l-23.76-13.73a8.13,8.13,0,0,1-3.69-6.38Z" style="fill:#4CD6E5"></path><path d="M424.42,113.71c0-2.35,1.65-3.3,3.69-2.12l23.76,13.72a8.13,8.13,0,0,1,3.69,6.38v27.45c0,2.35-1.65,3.3-3.69,2.13l-23.76-13.73a8.13,8.13,0,0,1-3.69-6.38Z" style="fill:#fff;opacity:0.55"></path><path d="M465.94,153.14a8.14,8.14,0,0,1-3.68,6.39l-3,1.74a8.26,8.26,0,0,1-6.75.29c1.74.66,3.06-.32,3.06-2.42V131.69a7.52,7.52,0,0,0-1.08-3.63l10.38-6a7.46,7.46,0,0,1,1.08,3.63Z" style="fill:#4CD6E5"></path><path d="M465.94,153.14a8.14,8.14,0,0,1-3.68,6.39l-3,1.74a8.26,8.26,0,0,1-6.75.29c1.74.66,3.06-.32,3.06-2.42V131.69a7.52,7.52,0,0,0-1.08-3.63l10.38-6a7.46,7.46,0,0,1,1.08,3.63Z" style="fill:#fff;opacity:0.4"></path><path d="M437.51,147.58l4,2.29V136.64l2.77,1.59.3-4.26-3.07-1.77v-2.52c0-1.05.16-1.37.92-.93l2.15,1.24v-4.6l-2.75-1.59c-3-1.7-4.28-.73-4.28,2.58v3.53l-2.06-1.19v4.49l2.06,1.19Z" style="fill:#fff"></path></g><g id="freepik--social-icon--inject-113"><path d="M462.26,181.52,438.49,167.8a8.2,8.2,0,0,0-7.38,0l-3,1.74a8.13,8.13,0,0,0-3.69,6.39v27.44a8.16,8.16,0,0,0,3.69,6.39l23.76,13.72a8.2,8.2,0,0,0,7.38,0l3-1.74a8.14,8.14,0,0,0,3.68-6.39V187.91A8.17,8.17,0,0,0,462.26,181.52Z" style="fill:#4CD6E5"></path><path d="M462.26,181.52,438.49,167.8a8.2,8.2,0,0,0-7.38,0l-3,1.74a8.13,8.13,0,0,0-3.69,6.39v27.44a8.16,8.16,0,0,0,3.69,6.39l23.76,13.72a8.2,8.2,0,0,0,7.38,0l3-1.74a8.14,8.14,0,0,0,3.68-6.39V187.91A8.17,8.17,0,0,0,462.26,181.52Z" style="fill:#fff;opacity:0.7000000000000001"></path><path d="M424.42,175.93c0-2.36,1.65-3.31,3.69-2.13l23.76,13.72a8.13,8.13,0,0,1,3.69,6.39v27.44c0,2.35-1.65,3.3-3.69,2.13l-23.76-13.72a8.16,8.16,0,0,1-3.69-6.39Z" style="fill:#4CD6E5"></path><path d="M424.42,175.93c0-2.36,1.65-3.31,3.69-2.13l23.76,13.72a8.13,8.13,0,0,1,3.69,6.39v27.44c0,2.35-1.65,3.3-3.69,2.13l-23.76-13.72a8.16,8.16,0,0,1-3.69-6.39Z" style="fill:#fff;opacity:0.55"></path><path d="M465.94,215.35a8.14,8.14,0,0,1-3.68,6.39l-3,1.74a8.29,8.29,0,0,1-6.75.3c1.74.65,3.06-.33,3.06-2.43V193.91a7.53,7.53,0,0,0-1.08-3.64l10.38-6a7.49,7.49,0,0,1,1.08,3.63Z" style="fill:#4CD6E5"></path><path d="M465.94,215.35a8.14,8.14,0,0,1-3.68,6.39l-3,1.74a8.29,8.29,0,0,1-6.75.3c1.74.65,3.06-.33,3.06-2.43V193.91a7.53,7.53,0,0,0-1.08-3.64l10.38-6a7.49,7.49,0,0,1,1.08,3.63Z" style="fill:#fff;opacity:0.4"></path><path d="M440,189.14c2.43,1.4,2.72,1.58,3.68,2.19a8,8,0,0,1,1.69,1.4,6.44,6.44,0,0,1,1.05,1.51,7.34,7.34,0,0,1,.68,1.79,10.66,10.66,0,0,1,.32,2.44c0,1.3,0,1.69,0,4.93s0,3.63,0,4.88a6.52,6.52,0,0,1-.32,2.08,1.91,1.91,0,0,1-.68,1,1.43,1.43,0,0,1-1.05.3,4.12,4.12,0,0,1-1.69-.56c-1-.49-1.25-.65-3.68-2s-2.72-1.58-3.68-2.2a7.72,7.72,0,0,1-1.69-1.39,7.24,7.24,0,0,1-1.05-1.51,7.77,7.77,0,0,1-.68-1.79,11.44,11.44,0,0,1-.31-2.44c-.05-1.31-.05-1.7-.05-4.94s0-3.62.05-4.87a6.88,6.88,0,0,1,.31-2.08,2,2,0,0,1,.68-1,1.49,1.49,0,0,1,1.05-.31,4.12,4.12,0,0,1,1.69.56c1,.5,1.25.65,3.68,2.06m0-2.19c-2.47-1.43-2.78-1.59-3.75-2.1a5.55,5.55,0,0,0-2.21-.71,2.34,2.34,0,0,0-1.62.47,3.09,3.09,0,0,0-1.05,1.55,8.87,8.87,0,0,0-.42,2.7c-.05,1.27-.06,1.68-.06,5s0,3.72.06,5a14.9,14.9,0,0,0,.42,3.2,12,12,0,0,0,1.05,2.75,10.59,10.59,0,0,0,3.83,4.18c1,.62,1.28.81,3.75,2.24s2.79,1.59,3.76,2.09A5.39,5.39,0,0,0,446,214a2.25,2.25,0,0,0,1.61-.46,3.12,3.12,0,0,0,1.05-1.55,8.87,8.87,0,0,0,.43-2.7c0-1.27.05-1.68.05-5s0-3.72-.05-5a14.65,14.65,0,0,0-.43-3.19,11.78,11.78,0,0,0-1.05-2.76,10.53,10.53,0,0,0-3.82-4.17c-1-.62-1.28-.81-3.76-2.24" style="fill:#fff"></path><path d="M440,192.86c-2.58-1.49-4.68.09-4.68,3.53s2.1,7.45,4.68,8.94,4.68-.09,4.68-3.54-2.09-7.44-4.68-8.93m0,10.28a7.28,7.28,0,0,1-3-5.8c0-2.24,1.36-3.26,3-2.29a7.25,7.25,0,0,1,3,5.8c0,2.23-1.36,3.26-3,2.29" style="fill:#fff"></path><path d="M443.9,195a2.64,2.64,0,0,0,1.09,2.09c.6.35,1.09,0,1.09-.83A2.64,2.64,0,0,0,445,194.2c-.6-.35-1.09,0-1.09.83" style="fill:#fff"></path></g><g id="freepik--social-icon--inject-113"><path d="M462.26,243.75,438.49,230a8.14,8.14,0,0,0-7.38,0l-3,1.73a8.16,8.16,0,0,0-3.69,6.39v27.44a8.13,8.13,0,0,0,3.69,6.39l23.76,13.72a8.14,8.14,0,0,0,7.38,0l3-1.73a8.17,8.17,0,0,0,3.68-6.39V250.14A8.17,8.17,0,0,0,462.26,243.75Z" style="fill:#4CD6E5"></path><path d="M462.26,243.75,438.49,230a8.14,8.14,0,0,0-7.38,0l-3,1.73a8.16,8.16,0,0,0-3.69,6.39v27.44a8.13,8.13,0,0,0,3.69,6.39l23.76,13.72a8.14,8.14,0,0,0,7.38,0l3-1.73a8.17,8.17,0,0,0,3.68-6.39V250.14A8.17,8.17,0,0,0,462.26,243.75Z" style="fill:#fff;opacity:0.7000000000000001"></path><path d="M424.42,238.15c0-2.35,1.65-3.3,3.69-2.13l23.76,13.72a8.16,8.16,0,0,1,3.69,6.39v27.44c0,2.36-1.65,3.31-3.69,2.13L428.11,272a8.13,8.13,0,0,1-3.69-6.39Z" style="fill:#4CD6E5"></path><path d="M424.42,238.15c0-2.35,1.65-3.3,3.69-2.13l23.76,13.72a8.16,8.16,0,0,1,3.69,6.39v27.44c0,2.36-1.65,3.31-3.69,2.13L428.11,272a8.13,8.13,0,0,1-3.69-6.39Z" style="fill:#fff;opacity:0.55"></path><path d="M465.94,277.58a8.17,8.17,0,0,1-3.68,6.39l-3,1.73a8.22,8.22,0,0,1-6.75.3c1.74.66,3.06-.32,3.06-2.43V256.13a7.49,7.49,0,0,0-1.08-3.63l10.38-6a7.53,7.53,0,0,1,1.08,3.64Z" style="fill:#4CD6E5"></path><path d="M465.94,277.58a8.17,8.17,0,0,1-3.68,6.39l-3,1.73a8.22,8.22,0,0,1-6.75.3c1.74.66,3.06-.32,3.06-2.43V256.13a7.49,7.49,0,0,0-1.08-3.63l10.38-6a7.53,7.53,0,0,1,1.08,3.64Z" style="fill:#fff;opacity:0.4"></path><g id="freepik--Messages--inject-113"><path d="M430.36,254.12c0,6,4.15,13.19,9.29,16.05a13.61,13.61,0,0,0,5.44,6.41.44.44,0,0,0,.24.07.46.46,0,0,0,.29-.11.39.39,0,0,0,.1-.49,9.48,9.48,0,0,1-1.05-4.48c3.11-.47,5-3.24,5-7.49,0-6.08-4.23-13.31-9.42-16.12-2.46-1.34-4.83-1.52-6.67-.52C431.52,248.53,430.36,251,430.36,254.12Z" style="fill:#fafafa"></path></g></g></g><g id="freepik--speech-bubble--inject-113"><g id="freepik--speech-bubble--inject-113"><g id="freepik--speech-bubble--inject-113"><g id="freepik--speech-bubble--inject-113"><path d="M161.2,115.52,153.33,111a.7.7,0,0,1-.37-.33l-1.45-2.53,4.67-2.69-.14.41Z" style="fill:#4CD6E5"></path><path d="M161.2,115.52,153.33,111a.7.7,0,0,1-.37-.33l-1.45-2.53,4.67-2.69-.14.41Z" style="opacity:0.1"></path><path d="M155.47,105.81l5.45,9.43a.81.81,0,0,0,1.47-.14l5.75-16.61Z" style="fill:#4CD6E5"></path><path d="M155.47,105.81l5.45,9.43a.81.81,0,0,0,1.47-.14l5.75-16.61Z" style="fill:#fff;opacity:0.2"></path><path d="M181.34,50.6a8.43,8.43,0,0,0-3.8-6.59l-.84-.5a8.43,8.43,0,0,0-7.61,0l-51.8,29.95a8.41,8.41,0,0,0-3.81,6.59V116a8.41,8.41,0,0,0,3.81,6.59l.83.5a8.37,8.37,0,0,0,7.61,0l52.16-30.2c3.42-2,3.45-3.91,3.45-6.33Z" style="fill:#4CD6E5"></path><path d="M181.34,50.6a8.43,8.43,0,0,0-3.8-6.59l-.84-.5a8.43,8.43,0,0,0-7.61,0l-51.8,29.95a8.41,8.41,0,0,0-3.81,6.59V116a8.41,8.41,0,0,0,3.81,6.59l.83.5a8.37,8.37,0,0,0,7.61,0l52.16-30.2c3.42-2,3.45-3.91,3.45-6.33Z" style="fill:#fff;opacity:0.2"></path><path d="M113.48,116a8.41,8.41,0,0,0,3.81,6.59l.83.5a8.48,8.48,0,0,0,7,.32c-1.79.68-3.15-.34-3.15-2.51V84.94A7.79,7.79,0,0,1,123,81.19L114.6,76.3a7.74,7.74,0,0,0-1.12,3.75Z" style="fill:#4CD6E5"></path><path d="M181.22,49.52c-.45-1.61-1.92-2.13-3.68-1.12l-51.81,30a7.43,7.43,0,0,0-2.68,2.84l-8.44-4.9a7.74,7.74,0,0,1,2.68-2.84l51.8-29.95a8.49,8.49,0,0,1,7.61,0l.84.51A8.44,8.44,0,0,1,181.22,49.52Z" style="fill:#fff;opacity:0.4"></path></g></g><path d="M133.71,80.94a1.4,1.4,0,0,1,.64-1.09l32.37-18.7a1.42,1.42,0,0,1,1.27,0l.71.42a1.39,1.39,0,0,1,.63,1.09V87.48a1.4,1.4,0,0,1-.63,1.1l-32.38,18.69a1.4,1.4,0,0,1-1.26,0l-.71-.41a1.41,1.41,0,0,1-.64-1.1Z" style="fill:#ebebeb"></path><path d="M136.68,81.93l-2.78-1.61a1.24,1.24,0,0,0-.19.62v24.82a1.41,1.41,0,0,0,.64,1.1l.71.41a1.4,1.4,0,0,0,1.26,0l.36-.21Z" style="fill:#e0e0e0"></path><path d="M136.68,81.93l-2.78-1.61a1.24,1.24,0,0,0-.19.62v24.82a1.41,1.41,0,0,0,.64,1.1l.71.41a1.4,1.4,0,0,0,1.26,0l.36-.21Z" style="opacity:0.1"></path><path d="M169.34,62.66V87.48a1.3,1.3,0,0,1-.2.64,1.38,1.38,0,0,1-.37.42h0l0,0-32.37,18.69h0a.43.43,0,0,1-.43,0,.44.44,0,0,1-.2-.42V82.09a.55.55,0,0,1,.71-.57L150,84.76l1.78.43a1.19,1.19,0,0,0,1.14-.43L155,81.88l13.91-19.36C169.14,62.2,169.34,62.26,169.34,62.66Z" style="fill:#fafafa"></path><path d="M168.7,88.58l0,0h0a1.38,1.38,0,0,0,.37-.42,1.25,1.25,0,0,0,.19-.63L155,81.88l9.6,9.06Z" style="opacity:0.2"></path><path d="M135.69,106.9a.44.44,0,0,0,.2.42.43.43,0,0,0,.43,0h0l11.14-6.44L150,84.76l-14.33,21.73Z" style="opacity:0.2"></path><path d="M169.14,88.12a1.38,1.38,0,0,1-.37.42h0l-32.41,18.72h0a.43.43,0,0,1-.43,0l15.5-24.75a2.44,2.44,0,0,1,3.05-.94Z" style="fill:#fafafa"></path><path d="M136,81.49l14.73,7.64a2.4,2.4,0,0,0,3-.93l15.47-25.88Z" style="opacity:0.2"></path><path d="M136,81.49,150.79,87a2.39,2.39,0,0,0,2.86-.94l15.52-23.77Z" style="fill:#fafafa"></path><g id="freepik--Notification--inject-113"><path d="M189.38,39.06l-3.78-2.19h0l0,0h0c-1.65-.93-3.92-.79-6.42.66-5,2.91-9.13,10-9.13,15.81,0,2.91,1,5,2.66,5.91h0l3.45,2,.8-1.35a9.07,9.07,0,0,0,2.62-1c5-2.91,9.13-10,9.14-15.81a9.85,9.85,0,0,0-.29-2.34Z" style="fill:#37474f"></path><path d="M170.35,50.26a14.86,14.86,0,0,0-.34,3.06c0,2.91,1,5,2.66,5.91h0l3.45,2,.8-1.35a9.07,9.07,0,0,0,2.62-1A14.27,14.27,0,0,0,182,57Z" style="fill:#263238"></path><path d="M182.73,39.58c-5,2.91-9.13,10-9.13,15.81s4.09,8.19,9.13,5.28,9.13-10,9.13-15.82S187.78,36.67,182.73,39.58Z" style="fill:#455a64"></path><path d="M186.34,47.69V45.45c0-2.55-1.55-3.73-3.47-2.62h0c-1.91,1.1-3.46,4.07-3.46,6.62v2a7.94,7.94,0,0,1-1.17,3.91h0a2.17,2.17,0,0,0-.29,1h0c0,.64.39.94.88.66l8.09-4.68a2.09,2.09,0,0,0,.87-1.67h0a.8.8,0,0,0-.25-.67h0A2.35,2.35,0,0,1,186.34,47.69Z" style="fill:#fff"></path><path d="M184.54,54.44a4,4,0,0,1-1.67,3.18c-.92.53-1.66,0-1.66-1.26Z" style="fill:#fff"></path></g></g></g><g id="freepik--Locator--inject-113"><g id="freepik--Pin--inject-113"><path d="M318.23,169.16a3.39,3.39,0,0,1-.5.37l9.83-5.55s24.24-19.59,24.24-37.63v-4.11c0-18-11.87-39.5-26.52-48-.5-.29-1-.56-1.49-.81s-1-.49-1.48-.7a26.2,26.2,0,0,0-2.89-1.07c-.47-.14-.94-.27-1.39-.37a11,11,0,0,0-1.37-.25,12.35,12.35,0,0,0-1.33-.16c-.45,0-.87-.06-1.3-.06a13.55,13.55,0,0,0-7.64,2.24l-9.18,5.29c4.66-2.32,10.76-1.84,17.45,2,10.49,6.06,19.57,18.81,23.87,32.16h0a51.9,51.9,0,0,1,2.66,15.8v4.11C341.19,146.36,325.47,162.47,318.23,169.16ZM301.4,103.37c0,8.46,5.93,18.75,13.26,23,6.51,3.74,11.9,1.48,13-5l-.07,0-.77-.31a7.92,7.92,0,0,1-.78-.37c-.27-.13-.53-.27-.8-.43C317.94,116,312,105.7,312,97.26a7.49,7.49,0,0,1,0-.83,3.64,3.64,0,0,1,0-.48,10,10,0,0,1,.17-1.38C306.07,92.32,301.4,95.88,301.4,103.37Z" style="fill:#4CD6E5"></path><path d="M341.19,132.48v-4.11a51.9,51.9,0,0,0-2.66-15.8h0c-4.3-13.35-13.38-26.1-23.87-32.16-6.69-3.85-12.79-4.33-17.45-2l9.18-5.29A13.55,13.55,0,0,1,314,70.86c.43,0,.85,0,1.3.06a12.35,12.35,0,0,1,1.33.16,11,11,0,0,1,1.37.25c.45.1.92.23,1.39.37a26.2,26.2,0,0,1,2.89,1.07c.48.21,1,.45,1.48.7s1,.52,1.49.81c14.65,8.46,26.52,29.93,26.52,48v4.11c0,18-24.24,37.63-24.24,37.63l-9.83,5.55a3.39,3.39,0,0,0,.5-.37C325.47,162.47,341.19,146.36,341.19,132.48Z" style="opacity:0.2"></path><path d="M312.24,94.57a10,10,0,0,0-.17,1.38,3.64,3.64,0,0,0,0,.48,7.49,7.49,0,0,0,0,.83c0,8.44,5.93,18.74,13.27,23,.27.16.53.3.8.43a7.92,7.92,0,0,0,.78.37l.77.31.07,0c-1.14,6.47-6.53,8.73-13,5-7.33-4.23-13.26-14.52-13.26-23C301.4,95.88,306.07,92.32,312.24,94.57Z" style="opacity:0.5"></path><path d="M288.14,101.84c0,14.94,18.2,53.47,24.45,66.26a3.57,3.57,0,0,0,5.64,1.05c7.23-6.67,23-22.79,23-36.67v-4.11c0-18-11.88-39.51-26.53-48s-26.52-.69-26.52,17.34Zm13.26,1.54c0-8.46,5.94-11.89,13.26-7.66s13.27,14.51,13.27,23-5.94,11.89-13.27,7.66S301.4,111.83,301.4,103.38Z" style="fill:#4CD6E5"></path><path d="M297.21,78.39l9.18-5.29A13.55,13.55,0,0,1,314,70.86c.43,0,.85,0,1.3.06a12.35,12.35,0,0,1,1.33.16,11,11,0,0,1,1.37.25c.45.1.92.23,1.39.37a26.2,26.2,0,0,1,2.89,1.07c.48.21,1,.45,1.48.7s1,.52,1.49.81c9.91,5.72,18.54,17.39,23.09,29.93l-10.61,6.12c-4.56-12.52-13.19-24.2-23.1-29.93C308,76.55,301.87,76.07,297.21,78.39Z" style="fill:#4CD6E5"></path><path d="M297.21,78.39l9.18-5.29A13.55,13.55,0,0,1,314,70.86c.43,0,.85,0,1.3.06a12.35,12.35,0,0,1,1.33.16,11,11,0,0,1,1.37.25c.45.1.92.23,1.39.37a26.2,26.2,0,0,1,2.89,1.07c.48.21,1,.45,1.48.7s1,.52,1.49.81c9.91,5.72,18.54,17.39,23.09,29.93l-10.61,6.12c-4.56-12.52-13.19-24.2-23.1-29.93C308,76.55,301.87,76.07,297.21,78.39Z" style="fill:#fff;opacity:0.30000000000000004"></path><path d="M314.65,80.4l1.57,1.08a19,19,0,0,1,1.55,1.11c1,.82,2,1.55,2.91,2.45s1.87,1.71,2.72,2.65l1.3,1.38,1.21,1.46a69.46,69.46,0,0,1,13.59,26.86c.33,1.22.52,2.47.79,3.71s.35,2.51.53,3.76.18,2.53.24,3.8l.12,3.82.11-3.82c0-1.27,0-2.55-.05-3.83s-.22-2.55-.41-3.81-.39-2.54-.69-3.78A62.65,62.65,0,0,0,326.41,90.1,43.73,43.73,0,0,0,314.65,80.4Z" style="fill:#4CD6E5"></path><g style="opacity:0.5"><path d="M314.65,80.4l1.57,1.08a19,19,0,0,1,1.55,1.11c1,.82,2,1.55,2.91,2.45s1.87,1.71,2.72,2.65l1.3,1.38,1.21,1.46a69.46,69.46,0,0,1,13.59,26.86c.33,1.22.52,2.47.79,3.71s.35,2.51.53,3.76.18,2.53.24,3.8l.12,3.82.11-3.82c0-1.27,0-2.55-.05-3.83s-.22-2.55-.41-3.81-.39-2.54-.69-3.78A62.65,62.65,0,0,0,326.41,90.1,43.73,43.73,0,0,0,314.65,80.4Z" style="fill:#fff"></path></g></g></g></svg>