<svg xmlns="http://www.w3.org/2000/svg" viewBox="0 0 500 500"><g id="freepik--speech-bubble--inject-14"><path d="M342.5,69.11l59.87,34.62a6.69,6.69,0,0,1,3.34,5.77v60.2a6.57,6.57,0,0,1-10,5.41l-25-14.84-.54.87s-.05.05-.08.08h0l-.06,0h0c-1,.65-2.69,1.57-3.07,1.77v0a.36.36,0,0,1-.45-.22l-2.18-6.18h0L335.8,140.57a6.65,6.65,0,0,1-3.35-5.77V74.52C332.45,69.72,339.51,67.39,342.5,69.11Z" style="fill:#4CD6E5"></path><path d="M396.45,107.77Z" style="fill:none"></path><path d="M370.08,161.14s-.05.05-.08.08h0l-.06,0h0c-1,.65-2.69,1.57-3.07,1.77v0a.31.31,0,0,0,.22-.15l2.11-3.42-.42-.24h0l1.86,1.06Z" style="fill:#fff;opacity:0.2"></path><path d="M398.23,110a6.86,6.86,0,0,0-1.78-2.23h0a6.08,6.08,0,0,0-.81-.55L335.77,72.59a2.22,2.22,0,0,0-3.32,1.93c0-4.8,7.06-7.13,10.05-5.41l59.87,34.62a6.71,6.71,0,0,1,2.48,2.51Z" style="fill:#fff;opacity:0.4"></path><path d="M399,173.19V113a6.36,6.36,0,0,0-.75-3l6.62-3.76a6.67,6.67,0,0,1,.86,3.26v60.2a6.57,6.57,0,0,1-10,5.41A2.22,2.22,0,0,0,399,173.19Z" style="fill:#fff;opacity:0.2"></path><path d="M347.11,97.32l34.75,20.06-2.09,23.82c-.12,1.45-1.24,2-2.57,1.2L350.58,127a4.87,4.87,0,0,1-1.37-1.25l.05.68a10.22,10.22,0,0,0,4.6,7.5l1.17.67a4.53,4.53,0,0,1,1.25.5,6.17,6.17,0,0,1,1.25,1L370,143.3a4.14,4.14,0,0,1,1.25.5,6.5,6.5,0,0,1,1.25.94l2.65,1.53a2.26,2.26,0,0,1,1,1.78c0,.65-.47.91-1,.59l-.21-.12a7.08,7.08,0,0,1,.46,2.47c0,2.64-1.87,3.71-4.18,2.38a9.18,9.18,0,0,1-4.15-7.19,3.67,3.67,0,0,1,.48-1.93l-7.62-4.4a7.41,7.41,0,0,1,.46,2.47c0,2.65-1.88,3.71-4.18,2.38a9.12,9.12,0,0,1-4.15-7.19,3.61,3.61,0,0,1,.53-2,15.08,15.08,0,0,1-5.42-10l-2.36-32a4.54,4.54,0,0,0-2.05-3.33l-4.3-2.49a2.26,2.26,0,0,1-1-1.77c0-.66.47-.92,1-.59l4.3,2.48a9.11,9.11,0,0,1,4.09,6.67Zm18.19,33.91.05-19.08a3.08,3.08,0,0,0-1.39-2.41c-.77-.44-1.39-.09-1.4.8l-.05,19.08A3.09,3.09,0,0,0,363.9,132c.77.44,1.4.08,1.4-.8m6,3.48.05-19.08a3.08,3.08,0,0,0-1.39-2.41c-.77-.44-1.4-.09-1.4.8l0,19.08a3.06,3.06,0,0,0,1.39,2.41c.77.44,1.39.08,1.4-.8m6,3.48.06-19.08A3.08,3.08,0,0,0,376,116.7c-.77-.44-1.4-.09-1.4.8l-.05,19.08A3.06,3.06,0,0,0,376,139c.76.44,1.39.08,1.39-.8m-18.08-10.44.05-19.08a3,3,0,0,0-1.39-2.41c-.77-.44-1.39-.09-1.4.8l0,19.08a3.09,3.09,0,0,0,1.39,2.41c.77.44,1.4.08,1.4-.8m-6-3.48.06-19.08a3.1,3.1,0,0,0-1.39-2.41c-.77-.44-1.4-.09-1.4.8l-.06,19.08a3.06,3.06,0,0,0,1.39,2.4c.77.45,1.4.09,1.4-.79m3,13.85c-.86-.5-1.56-.1-1.57.89a3.46,3.46,0,0,0,1.56,2.7c.87.5,1.56.1,1.57-.89a3.43,3.43,0,0,0-1.56-2.7m15,8.67c-.86-.5-1.56-.1-1.56.89a3.42,3.42,0,0,0,1.55,2.7c.86.5,1.57.1,1.57-.9a3.44,3.44,0,0,0-1.56-2.69" style="fill:#fff"></path><path d="M391.81,117.89a3,3,0,0,1,1.07,1.12c.59,1,.59,2.12,0,2.45l-8.83,5a1.06,1.06,0,0,1-1.07-.11,3.13,3.13,0,0,1-1.07-1.12l-4.32-7.5c-.6-1-.59-2.12,0-2.46a1.08,1.08,0,0,1,1.07.11,3.13,3.13,0,0,1,1.07,1.12L383,122.2l7.76-4.42A1.06,1.06,0,0,1,391.81,117.89Z" style="fill:#fff"></path><path d="M385.25,108.64c5.89,3.4,10.64,11.64,10.62,18.4s-4.8,9.48-10.69,6.08-10.63-11.62-10.61-18.39S379.37,105.25,385.25,108.64ZM384,126.5l8.83-5c.6-.33.6-1.43,0-2.45a3,3,0,0,0-1.07-1.12,1.06,1.06,0,0,0-1.07-.11L383,122.2l-3.26-5.66a3.13,3.13,0,0,0-1.07-1.12,1.08,1.08,0,0,0-1.07-.11c-.59.34-.6,1.43,0,2.46l4.32,7.5a3.13,3.13,0,0,0,1.07,1.12,1.06,1.06,0,0,0,1.07.11" style="fill:#4CD6E5"></path><path d="M385.25,108.64c5.89,3.4,10.64,11.64,10.62,18.4s-4.8,9.48-10.69,6.08-10.63-11.62-10.61-18.39S379.37,105.25,385.25,108.64ZM384,126.5l8.83-5c.6-.33.6-1.43,0-2.45a3,3,0,0,0-1.07-1.12,1.06,1.06,0,0,0-1.07-.11L383,122.2l-3.26-5.66a3.13,3.13,0,0,0-1.07-1.12,1.08,1.08,0,0,0-1.07-.11c-.59.34-.6,1.43,0,2.46l4.32,7.5a3.13,3.13,0,0,0,1.07,1.12,1.06,1.06,0,0,0,1.07.11" style="fill:#fff;opacity:0.30000000000000004"></path></g><g id="freepik--character-2--inject-14"><path d="M193.31,79.64h0c-.7-2.47-5.72-7.17-10.72-7.07a4.32,4.32,0,0,0-1.4.28L84.2,128a9.15,9.15,0,0,0-3.73,4,9.26,9.26,0,0,0-1,4.07V345.92c0,5.34,6.16,10.44,11.95,8l0,0a2,2,0,0,0,.38-.15l97-55.28a9.29,9.29,0,0,0,4.68-8.06V80.65A2.25,2.25,0,0,0,193.31,79.64Z" style="fill:#455a64"></path><path d="M93,158.27a4.62,4.62,0,0,1,2.34-4L185.45,103a2.32,2.32,0,0,1,3.47,2v169.2a4.67,4.67,0,0,1-2.34,4L96.51,329.56a2.32,2.32,0,0,1-3.47-2Z" style="fill:#4CD6E5"></path><path d="M93,158.27a4.62,4.62,0,0,1,2.34-4L185.45,103a2.32,2.32,0,0,1,3.47,2v169.2a4.67,4.67,0,0,1-2.34,4L96.51,329.56a2.32,2.32,0,0,1-3.47-2Z" style="opacity:0.2"></path><path d="M93,158.27a4.62,4.62,0,0,1,2.34-4L185.45,103a2.32,2.32,0,0,1,3.47,2v169.2a4.67,4.67,0,0,1-2.34,4L96.51,329.56a2.32,2.32,0,0,1-3.47-2Z" style="fill:#fff;opacity:0.1"></path><path d="M79.51,136.09V345.92c0,5.34,6.16,10.44,11.95,8l0,0a2.3,2.3,0,0,1-3.09-2.16V141.89A9.25,9.25,0,0,1,90,136.77L80.47,132A9.26,9.26,0,0,0,79.51,136.09Z" style="opacity:0.30000000000000004"></path><path d="M182.6,72.56a4.32,4.32,0,0,0-1.4.28L84.2,128a9.15,9.15,0,0,0-3.73,4L90,136.77a9.23,9.23,0,0,1,3.13-3l97-55.18a2.3,2.3,0,0,1,3.22,1h0C192.62,77.16,187.6,72.46,182.6,72.56Z" style="fill:#fff;opacity:0.1"></path><path d="M152.93,113.28c.69-.39,1.25-.08,1.25.7a2.78,2.78,0,0,1-1.24,2.15l-19,11c-.68.4-1.23.07-1.23-.72a2.71,2.71,0,0,1,1.22-2.12Z" style="fill:#263238"></path><path d="M129,127.09c.68-.39,1.23-.08,1.23.71a2.75,2.75,0,0,1-1.23,2.14c-.68.39-1.24.07-1.24-.71A2.7,2.7,0,0,1,129,127.09Z" style="fill:#263238"></path><path d="M141.2,111.69c1.36-.79,2.46-.16,2.46,1.4a5.42,5.42,0,0,1-2.45,4.27c-1.36.79-2.49.15-2.49-1.42A5.44,5.44,0,0,1,141.2,111.69Z" style="fill:#263238"></path><path d="M141.2,309.22c2.78-1.6,5-.32,5,2.86a11.08,11.08,0,0,1-5,8.71c-2.77,1.6-5.07.29-5.08-2.9A11.08,11.08,0,0,1,141.2,309.22Z" style="fill:#263238"></path><polygon points="188.62 100.34 221.38 127.53 209.44 134.43 176.69 107.24 188.62 100.34" style="fill:#4CD6E5"></polygon><polygon points="164.75 114.14 197.5 141.32 185.56 148.22 152.82 121.04 164.75 114.14" style="fill:#4CD6E5"></polygon><polygon points="152.82 121.04 185.56 148.22 173.62 155.12 140.88 127.94 152.82 121.04" style="fill:#fff"></polygon><polygon points="176.69 107.24 209.44 134.43 197.5 141.32 164.75 114.14 176.69 107.24" style="fill:#fff"></polygon><polygon points="117.01 141.73 149.74 168.91 137.8 175.81 105.07 148.63 117.01 141.73" style="fill:#4CD6E5"></polygon><polygon points="140.88 127.94 173.62 155.12 161.68 162.01 128.94 134.83 140.88 127.94" style="fill:#4CD6E5"></polygon><polygon points="92.91 155.66 105.07 148.63 137.8 175.81 125.61 182.85 92.91 155.66" style="fill:#fff"></polygon><polygon points="128.94 134.83 161.68 162.01 149.74 168.91 117.01 141.73 128.94 134.83" style="fill:#fff"></polygon><path d="M221.38,127.53l-11.94,6.9h0a4.61,4.61,0,0,0,6.91,4h0a10.09,10.09,0,0,0,5-8.72Z" style="fill:#4CD6E5"></path><path d="M209.44,134.43l-11.94,6.9h0a4.61,4.61,0,0,0,6.91,4h0a10.07,10.07,0,0,0,5-8.72Z" style="fill:#e0e0e0"></path><path d="M197.5,141.33l-11.94,6.89h0a4.61,4.61,0,0,0,6.91,4h0a10.07,10.07,0,0,0,5-8.72Z" style="fill:#4CD6E5"></path><path d="M185.56,148.22l-11.94,6.9h0a4.6,4.6,0,0,0,6.91,4h0a10.06,10.06,0,0,0,5-8.71Z" style="fill:#e0e0e0"></path><path d="M173.62,155.12,161.68,162h0a4.61,4.61,0,0,0,6.91,4h0a10.07,10.07,0,0,0,5-8.72Z" style="fill:#4CD6E5"></path><path d="M161.68,162l-11.94,6.89h0a4.61,4.61,0,0,0,6.91,4h0a10.09,10.09,0,0,0,5-8.72Z" style="fill:#e0e0e0"></path><path d="M149.74,168.91l-11.94,6.9h0a4.6,4.6,0,0,0,6.91,4h0a10,10,0,0,0,5-8.72Z" style="fill:#4CD6E5"></path><path d="M221.38,127.53l-11.94,6.9h0a4.61,4.61,0,0,0,6.91,4h0a10.09,10.09,0,0,0,5-8.72Z" style="opacity:0.2"></path><path d="M197.5,141.33l-11.94,6.89h0a4.61,4.61,0,0,0,6.91,4h0a10.07,10.07,0,0,0,5-8.72Z" style="opacity:0.2"></path><path d="M173.62,155.12,161.68,162h0a4.61,4.61,0,0,0,6.91,4h0a10.07,10.07,0,0,0,5-8.72Z" style="opacity:0.2"></path><path d="M149.74,168.91l-11.94,6.9h0a4.6,4.6,0,0,0,6.91,4h0a10,10,0,0,0,5-8.72Z" style="opacity:0.2"></path><path d="M137.8,175.81l-12.19,7h0a4.6,4.6,0,0,0,6.9,4h0a10.58,10.58,0,0,0,5.29-9.17Z" style="fill:#e0e0e0"></path><path d="M151.72,211a29.41,29.41,0,0,0-10.14,3.13,32.41,32.41,0,0,0-15.74,18.12,29.48,29.48,0,0,0-1.67,10.48,49.63,49.63,0,0,1,3.39-9.78,41.63,41.63,0,0,1,14.95-17.22A50.12,50.12,0,0,1,151.72,211Z" style="fill:#4CD6E5"></path><path d="M142.38,263.36a18.6,18.6,0,0,1-5.71-1,16.08,16.08,0,0,1-9.42-8.27,18.34,18.34,0,0,1-1.73-5.53,13,13,0,0,0,.77,5.94,14,14,0,0,0,10.1,8.86A13,13,0,0,0,142.38,263.36Z" style="fill:#4CD6E5"></path><path d="M157.88,231.2a45.46,45.46,0,0,1-.12,8A40.5,40.5,0,0,1,152,256.14a45.41,45.41,0,0,1-4.79,6.45,25.07,25.07,0,0,0,6-5.64,29.1,29.1,0,0,0,6-17.64A25.09,25.09,0,0,0,157.88,231.2Z" style="fill:#4CD6E5"></path><path d="M126.53,220.16a27.72,27.72,0,0,0-5.83,8.1,30.54,30.54,0,0,0-1.58,22.53,28.14,28.14,0,0,0,4.65,8.84,48,48,0,0,1-3-9.28,39.3,39.3,0,0,1,1.5-21.41A46.56,46.56,0,0,1,126.53,220.16Z" style="fill:#4CD6E5"></path><path d="M164.73,221.34a15.4,15.4,0,0,0-2.84-7.57A16.44,16.44,0,0,0,145.21,207a15.55,15.55,0,0,0-7.31,3.46,20.83,20.83,0,0,1,7.5-2.06,18.1,18.1,0,0,1,15.39,6.24A20.78,20.78,0,0,1,164.73,221.34Z" style="fill:#4CD6E5"></path><path d="M207.62,190h0a12.63,12.63,0,0,1,13.71,10.34l4.64,26,29.1,20.35-6.5,7.91-27.68-14.54a13.79,13.79,0,0,1-6.81-8.28l-8.92-30.09Z" style="fill:#ffa8a7"></path><path d="M218.42,217.94a13.49,13.49,0,0,0,5.87-6.17l-2.61-11.92A12.63,12.63,0,0,0,208.06,190l-.44.05-2.46,11.71L209,219A13.57,13.57,0,0,0,218.42,217.94Z" style="fill:#455a64"></path><path d="M218.42,217.94A13.57,13.57,0,0,1,209,219l1,4.25c3.61.81,12.86.54,15.27-7.1l-1-4.4A13.49,13.49,0,0,1,218.42,217.94Z" style="fill:#455a64"></path><path d="M218.42,217.94a13.49,13.49,0,0,0,5.87-6.17l-2.61-11.92A12.63,12.63,0,0,0,208.06,190l-.44.05-2.46,11.71L209,219A13.57,13.57,0,0,0,218.42,217.94Z" style="fill:#fff;opacity:0.2"></path><path d="M218.42,217.94A13.57,13.57,0,0,1,209,219l1,4.25c3.61.81,12.86.54,15.27-7.1l-1-4.4A13.49,13.49,0,0,1,218.42,217.94Z" style="fill:#fff;opacity:0.5"></path><path d="M214.06,201.19s-1.16-8.85-6.44-11.16c0,0-12.64,3.79-23.12,7.77A121.51,121.51,0,0,0,172.34,203c-2.38,2.06-9.21,8.19-12.42,9.84a15.25,15.25,0,0,1-5,1.5h0a17.46,17.46,0,0,0-6.22,2.27c-9.62,5.56-17.39,19-17.36,30.07,0,7.25,3.4,11.64,8.43,12.25v0H140a11.29,11.29,0,0,0,2.39,0c8.75-.08,22.78-.15,28.29-1.73C196.42,249.64,216.66,231,214.06,201.19Z" style="fill:#455a64"></path><path d="M189.53,197.56l3.77-6.84,15.17,10.22-6,8.06a10.1,10.1,0,0,1-8.14.33,10.36,10.36,0,0,1-5.5-6.16A7.23,7.23,0,0,1,189.53,197.56Z" style="fill:#ffa8a7"></path><path d="M194.72,191.67c0,8.24,6.55,12.1,10.55,13.56l3.2-4.29Z" style="opacity:0.2"></path><path d="M187.87,183.45c-.56-3.29-1.13-6.67-.49-9.95s2.76-6.48,6-7.44a11.22,11.22,0,0,1,6.77-5.93,30.87,30.87,0,0,1,8.89-1.08,43.08,43.08,0,0,1,9.9.55,14.65,14.65,0,0,1,8.48,4.81,14.12,14.12,0,0,1,2.46,10.86,31.75,31.75,0,0,1-4.11,10.63c-6.36.45-12.84,1.18-19.2,1.63a51.25,51.25,0,0,1-9.75.09A18.13,18.13,0,0,1,187.87,183.45Z" style="fill:#263238"></path><path d="M226.81,168.2a54.37,54.37,0,0,1-3.12,29.05c-.85,2.13-2,4.34-3.95,5.47s-4.67.95-7,.59a36.12,36.12,0,0,1-11.13-3.13,15.18,15.18,0,0,1-7.7-8.3,6.69,6.69,0,0,1-6.75-2.65,12.62,12.62,0,0,1-2.19-7.36c0-1.67.31-3.64,1.81-4.37s3.06.08,4.27,1.06a12.69,12.69,0,0,1,4.16,6.24c1.1-4.07,2.81-8,3.91-12,.44-1.6,1-3.34,2.37-4.23,1.7-1.09,3.92-.47,5.89,0A38.68,38.68,0,0,0,226.81,168.2Z" style="fill:#ffa8a7"></path><polygon points="214.97 180.53 219.72 188.52 214.06 189.59 214.97 180.53" style="fill:#f28f8f"></polygon><path d="M208.6,192.34l4.3,2.09a2.8,2.8,0,0,1-3.26.93A2.54,2.54,0,0,1,208.6,192.34Z" style="fill:#f28f8f"></path><path d="M208.6,192.34l4.3,2.09a2.8,2.8,0,0,1-3.26.93A2.54,2.54,0,0,1,208.6,192.34Z" style="opacity:0.30000000000000004"></path><path d="M211.13,195.5a2.58,2.58,0,0,1-1.49-.14,2.28,2.28,0,0,1-1.15-2.27,2.76,2.76,0,0,1,1.7.59A2.73,2.73,0,0,1,211.13,195.5Z" style="fill:#f28f8f"></path><path d="M206.77,180.85a1.63,1.63,0,1,0,1.78-1.46A1.63,1.63,0,0,0,206.77,180.85Z" style="fill:#263238"></path><path d="M220.41,181.69a1.62,1.62,0,1,0,1.78-1.45A1.62,1.62,0,0,0,220.41,181.69Z" style="fill:#263238"></path><path d="M222.63,175.41l3.34,2.84a2.32,2.32,0,0,0-.45-2.61A2.75,2.75,0,0,0,222.63,175.41Z" style="fill:#263238"></path><path d="M209.33,175.19l-3.83,2.12a2.32,2.32,0,0,1,.95-2.47A2.76,2.76,0,0,1,209.33,175.19Z" style="fill:#263238"></path><path d="M229.85,171.49a132.86,132.86,0,0,1-42,0c.65-17,8.3-22.57,21.5-22.57S230,156,229.85,171.49Z" style="fill:#455a64"></path><path d="M229.85,171.49c0-6.51-1.26-11.51-3.73-15.14l-5.53-1.55a18.24,18.24,0,0,0-8-.42l-5.27.88a8.39,8.39,0,0,0-7,7.31l-1.21,10.26h0A133.56,133.56,0,0,0,229.85,171.49Z" style="fill:#455a64"></path><path d="M229.85,171.49c0-6.51-1.26-11.51-3.73-15.14l-5.53-1.55a18.24,18.24,0,0,0-8-.42l-5.27.88a8.39,8.39,0,0,0-7,7.31l-1.21,10.26h0A133.56,133.56,0,0,0,229.85,171.49Z" style="fill:#fff;opacity:0.29"></path><path d="M231.5,157.18h-2.44c-.79,0-1.57,0-2.35.09a32.44,32.44,0,0,0-19.28,8.18l-8.22,7.38a133.56,133.56,0,0,0,30.64-1.34L235.2,165A4.8,4.8,0,0,0,231.5,157.18Z" style="fill:#455a64"></path><path d="M231.5,157.18h-2.44c-.79,0-1.57,0-2.35.09a32.44,32.44,0,0,0-19.28,8.18l-8.22,7.38a133.56,133.56,0,0,0,30.64-1.34L235.2,165A4.8,4.8,0,0,0,231.5,157.18Z" style="opacity:0.2"></path><polygon points="273.77 248.06 236.49 269.72 198.97 248.06 236.24 226.39 273.77 248.06" style="fill:#4CD6E5"></polygon><g style="opacity:0.30000000000000004"><polygon points="273.77 248.06 236.49 269.72 198.97 248.06 236.24 226.39 273.77 248.06" style="fill:#fff"></polygon></g><polygon points="273.77 248.06 273.66 285.98 236.38 307.64 236.49 269.72 273.77 248.06" style="fill:#4CD6E5"></polygon><g style="opacity:0.1"><polygon points="273.77 248.06 273.66 285.98 236.38 307.64 236.49 269.72 273.77 248.06" style="fill:#fff"></polygon></g><polygon points="236.49 269.72 236.38 307.64 198.86 285.98 198.97 248.06 236.49 269.72" style="fill:#4CD6E5"></polygon><polygon points="242.98 245.28 255.6 237.57 249.16 233.85 236.49 241.41 242.98 245.28" style="fill:#e0e0e0"></polygon><polygon points="242.98 245.28 236.49 241.41 223.62 233.73 217.2 237.46 229.99 245.28 236.49 249.25 253.65 259.75 260.53 255.75 242.98 245.28" style="fill:#fff"></polygon><polygon points="229.99 245.28 212.37 255.79 219.27 259.78 236.49 249.25 229.99 245.28" style="fill:#e0e0e0"></polygon><polygon points="260.53 255.75 253.65 259.75 253.71 259.78 253.81 297.51 260.77 293.47 260.67 255.82 260.53 255.75" style="fill:#e0e0e0"></polygon><polygon points="219.27 259.78 212.37 255.79 212.31 255.82 212.2 293.69 219.16 297.7 219.27 259.78 219.27 259.78" style="fill:#fff"></polygon><polygon points="219.27 259.78 212.37 255.79 212.31 255.82 212.2 293.69 219.16 297.7 219.27 259.78 219.27 259.78" style="opacity:0.2"></polygon><polygon points="236.47 256.74 228.67 261.51 236.47 266.02 244.25 261.5 236.47 256.74" style="fill:#fff"></polygon><path d="M162.67,255.43s2.91-42.35,3.52-45c2.33-10.07,16.93-9.35,18.32.89.57,4.18-6.1,44.77-6.1,44.77l24.16,25.56,4.89,4.49,4.36-.88,9.94.94a1.22,1.22,0,0,1,1.08,1h0a1.23,1.23,0,0,1-.9,1.44l-6.57,1.6,4.74,3.24a5.73,5.73,0,0,0,2.21.91l7.43,1.41a1.36,1.36,0,0,1,1.11,1.43h0a1.37,1.37,0,0,1-.88,1.2l-4,1.49a19.23,19.23,0,0,1-16-1.14L201.38,294a21.27,21.27,0,0,1-3.55-2.4L167,266.1A12.07,12.07,0,0,1,162.67,255.43Z" style="fill:#ffa8a7"></path><path d="M184.12,239.2l3.09-23a12,12,0,1,0-23.87-2.92l-2.58,23.47a28.76,28.76,0,0,0,23.36,2.42Z" style="fill:#455a64"></path><path d="M184.12,239.2l3.09-23a12,12,0,1,0-23.87-2.92l-2.58,23.47a28.76,28.76,0,0,0,23.36,2.42Z" style="fill:#fff;opacity:0.2"></path><path d="M171.71,240.43a29.42,29.42,0,0,1-11-3.65l-.59,5.41c10.39,8,23.13,3.06,23.13,3.06l.82-6.05A29.33,29.33,0,0,1,171.71,240.43Z" style="fill:#455a64"></path><path d="M171.71,240.43a29.42,29.42,0,0,1-11-3.65l-.59,5.41c10.39,8,23.13,3.06,23.13,3.06l.82-6.05A29.33,29.33,0,0,1,171.71,240.43Z" style="fill:#fff;opacity:0.5"></path></g><g id="freepik--character-1--inject-14"><path d="M328,272.54c-9.87,6.86-21,11.6-29.23,20.79-15.39,17.16-15.75,44.78-3.66,64.41s34.58,31.42,57.48,34.12c24,2.84,49.23-3.8,68.08-19s30.84-38.85,30.83-63-12.4-48.28-32.66-61.5c-18.49-12-45.05-15.49-63.6-1.7-9.37,7-15.63,17.27-25,24.27C329.56,271.47,328.8,272,328,272.54Z" style="fill:#4CD6E5"></path><path d="M328,272.54c-9.87,6.86-21,11.6-29.23,20.79-15.39,17.16-15.75,44.78-3.66,64.41s34.58,31.42,57.48,34.12c24,2.84,49.23-3.8,68.08-19s30.84-38.85,30.83-63-12.4-48.28-32.66-61.5c-18.49-12-45.05-15.49-63.6-1.7-9.37,7-15.63,17.27-25,24.27C329.56,271.47,328.8,272,328,272.54Z" style="opacity:0.2"></path><path d="M328,272.54c-9.87,6.86-21,11.6-29.23,20.79-15.39,17.16-15.75,44.78-3.66,64.41s34.58,31.42,57.48,34.12c24,2.84,49.23-3.8,68.08-19s30.84-38.85,30.83-63-12.4-48.28-32.66-61.5c-18.49-12-45.05-15.49-63.6-1.7-9.37,7-15.63,17.27-25,24.27C329.56,271.47,328.8,272,328,272.54Z" style="fill:#fff;opacity:0.1"></path><path d="M332.06,373.11c0-.17.05-.33.07-.49A26,26,0,0,1,353.18,351a82,82,0,0,0,27-10.33c5.89-3.56,11.46-7.93,18.07-9.86a29.47,29.47,0,0,1,19.48,1.13c-5.56-5.83-15.08-8.4-22.69-5.76,5.26-8.07,9.9-16.75,11.72-26.21s.52-19.85-5.18-27.61A27.78,27.78,0,0,0,358.67,270c-5.65,6.18-8.83,14.88-12.54,22.38-2.67,5.39-5.42,10.91-9.82,15-6.62,6.2-16.16,8.43-23,14.36-7.79,6.73-11.15,17.48-11.18,27.77a81.39,81.39,0,0,0,3,20.53,77.91,77.91,0,0,0,28.18,17.23A30.54,30.54,0,0,1,332.06,373.11Z" style="opacity:0.1"></path><path d="M438.65,306.53A70.62,70.62,0,0,0,378.42,238a51.75,51.75,0,0,0-6.81,1.14,68.83,68.83,0,0,1,65.17,67.45c.45,22.51-10.57,45.46-29.46,61.38-14.8,12.48-34.46,20.76-56.08,23.73.46.07.93.13,1.39.18,1.94.23,3.89.39,5.85.5,19.2-3.73,36.59-11.64,50-23C427.84,353.09,439.1,329.6,438.65,306.53Z" style="fill:#fff"></path><path d="M323.34,389.66l2.48,4.91c3.49-3.24,4.13-5.85,4.13-5.85-1.13-4-2.45-8.07-3.11-10.05-.33,2.76-2.21,5.13-3,7.82A13.68,13.68,0,0,0,323.34,389.66Z" style="fill:#37474f"></path><path d="M323.46,394.69l2.36-.12-2.48-4.91C323.27,391.32,323.41,393,323.46,394.69Z" style="fill:#263238"></path><path d="M325.26,372.88a21.7,21.7,0,0,0-2.93-3.42,11.86,11.86,0,0,1-.05,6.55c-.73,2.84-2.06,5.51-2.73,8.37-.81,3.48-.62,7.22-2.1,10.48a11.21,11.21,0,0,1-7.85,6.26,4.94,4.94,0,0,1-3.74-.45,2.65,2.65,0,0,1-1-1.39,24.64,24.64,0,0,1-2.69,4.38c-1.16,1.5-2.61,3.16-2.29,5a4,4,0,0,0,3.28,3,10.6,10.6,0,0,0,4.67-.39,29.12,29.12,0,0,0,9.35-3.81,14,14,0,0,0,5.94-8,17.87,17.87,0,0,0,.36-4.85c0-1.68-.19-3.37-.12-5a13.68,13.68,0,0,1,.49-3.17c.8-2.69,2.68-5.06,3-7.82,0-.15.05-.29.06-.44A9,9,0,0,0,325.26,372.88Z" style="fill:#455a64"></path><path d="M325.26,372.88a21.7,21.7,0,0,0-2.93-3.42,11.86,11.86,0,0,1-.05,6.55c-.73,2.84-2.06,5.51-2.73,8.37-.81,3.48-.62,7.22-2.1,10.48a11.21,11.21,0,0,1-7.85,6.26,4.94,4.94,0,0,1-3.74-.45,2.65,2.65,0,0,1-1-1.39,24.64,24.64,0,0,1-2.69,4.38c-1.16,1.5-2.61,3.16-2.29,5a4,4,0,0,0,3.28,3,10.6,10.6,0,0,0,4.67-.39,29.12,29.12,0,0,0,9.35-3.81,14,14,0,0,0,5.94-8,17.87,17.87,0,0,0,.36-4.85c0-1.68-.19-3.37-.12-5a13.68,13.68,0,0,1,.49-3.17c.8-2.69,2.68-5.06,3-7.82,0-.15.05-.29.06-.44A9,9,0,0,0,325.26,372.88Z" style="opacity:0.1"></path><path d="M309.6,401.12a11.21,11.21,0,0,0,7.85-6.26c1.48-3.26,1.29-7,2.1-10.48.67-2.86,2-5.53,2.73-8.37a11.86,11.86,0,0,0,.05-6.55c-.28-.28-.56-.56-.85-.83-4.22,2.18-9,4-12.85,6.78a91.62,91.62,0,0,1-.94,14.72,34.75,34.75,0,0,1-2.85,9.15,2.65,2.65,0,0,0,1,1.39A4.94,4.94,0,0,0,309.6,401.12Z" style="fill:#ab6160"></path><path d="M295.27,388.14c-.69,4.07-3.81,12.36-3.81,12.36s14.61.59,14.94-.08l4.29-6.64Z" style="fill:#c48281"></path><path d="M339,291.26,301.75,312a18.47,18.47,0,0,0-9.17,19.51l7.23,39-5.93,18.85c5.12,6.86,16.87,7.21,16.87,7.21,6.56-13.15,11.37-18.73,15.09-29.75s6.21-18.62,6.21-18.62l31-8.46a36.7,36.7,0,0,0,26.83-31.22c.53-4.68.55-7.87.55-7.87Z" style="fill:#455a64"></path><path d="M336.5,303.53a17.62,17.62,0,0,0,4.17,11.36l-23.49,14.67a18.92,18.92,0,0,0-8.06,10.5l-9.31,30.45,8.4-33.91a15.37,15.37,0,0,1,6.84-9.38L336.53,314C334.05,307.8,336.5,303.53,336.5,303.53Z" style="opacity:0.2"></path><path d="M299.39,419.4l.34,5.48c4.49-1.6,6.1-3.75,6.1-3.75.53-4.13.92-8.39,1.1-10.47-1.4,2.41-4.06,3.85-5.85,6A12.81,12.81,0,0,0,299.39,419.4Z" style="fill:#37474f"></path><path d="M297.52,424.06l2.21.82-.34-5.48C298.67,420.89,298.13,422.5,297.52,424.06Z" style="fill:#263238"></path><path d="M307.74,404.71a22,22,0,0,0-1.34-4.29,11.9,11.9,0,0,1-2.62,6c-1.79,2.32-4.07,4.25-5.8,6.61-2.12,2.89-3.42,6.4-6.05,8.81a11.24,11.24,0,0,1-9.69,2.68,4.94,4.94,0,0,1-3.25-1.89,2.67,2.67,0,0,1-.4-1.68,25,25,0,0,1-4.19,3c-1.66.93-3.65,1.88-4.09,3.73a4,4,0,0,0,1.84,4,10.58,10.58,0,0,0,4.44,1.48,29.06,29.06,0,0,0,10.1.17,13.91,13.91,0,0,0,8.58-5,17.92,17.92,0,0,0,2.25-4.32c.61-1.56,1.15-3.17,1.87-4.66a12.81,12.81,0,0,1,1.69-2.73c1.79-2.16,4.45-3.6,5.85-6,.07-.12.16-.24.23-.38A9,9,0,0,0,307.74,404.71Z" style="fill:#455a64"></path><path d="M282.24,424.53a11.24,11.24,0,0,0,9.69-2.68c2.63-2.41,3.93-5.92,6.05-8.81,1.73-2.36,4-4.29,5.8-6.61a11.9,11.9,0,0,0,2.62-6l-.45-1.1c-4.74.35-9.86.12-14.49,1.18a90.66,90.66,0,0,1-6.65,13.16,34.27,34.27,0,0,1-6.22,7.3,2.67,2.67,0,0,0,.4,1.68A4.94,4.94,0,0,0,282.24,424.53Z" style="fill:#c48281"></path><path d="M377.24,236.19a59.31,59.31,0,0,0,1-44.4c-1.74-4.54-4.2-9-8.23-11.77-5.16-3.48-11.83-3.43-18.05-3.25-3.3.1-6.67.2-9.77,1.34a10.07,10.07,0,0,0-6.45,6.79c-4.07-.75-8.17,2.46-9.27,6.45s.34,8.33,2.87,11.61,6,5.63,9.56,7.78c-2.14,1.12-3.72,3.7-4.46,6a9.46,9.46,0,0,0,.49,7,9.37,9.37,0,0,0-8.73,6.22,11.78,11.78,0,0,0,2.11,10.6,17.14,17.14,0,0,0,9.36,5.86,32,32,0,0,0,11.18.6c3.86,3.74,10.93,3.66,15.78,1.34S375.09,241.11,377.24,236.19Z" style="fill:#263238"></path><path d="M342.69,226.8h-.95c-6.35.07-14.39,4.4-18.32,15.48l-15.26,29.56,17.42,7.72,9.53-27.9Z" style="fill:#c48281"></path><path d="M330.45,246.42c-1.21,3.49-1.29,7.25-1.48,11s-.62,8.14-2.31,11.43a10.49,10.49,0,0,0-12.56.46,9.68,9.68,0,0,0-2.82,4l14.3,6.34,9.53-27.9,4.69-15.38A17.84,17.84,0,0,0,330.45,246.42Z" style="fill:#ab6160"></path><path d="M325.74,274.24a10.38,10.38,0,0,0-7.88-6.37c-3.49-.57-7.44,1.26-9.7,4-1.9,2.29-1.6,5.4-.4,8.13a10.14,10.14,0,0,0,11.62,5.5C323.88,284.23,327.44,278.59,325.74,274.24Z" style="fill:#c48281"></path><path d="M344.29,226.26c-6.72,1.07-10.89,18.07-13.07,24.53-2.26,6.67.81,11.51,4.23,15.54h0a6.9,6.9,0,0,1,1.57,5.34L330,297.94c19.3,14.33,51.66,7.39,60.44,2.71a62,62,0,0,0-5.67-26.6,43.81,43.81,0,0,1-4.28-17.21l-.33-9.64,2.33-16.64-16.76-4-14.77-.66A58.78,58.78,0,0,0,344.29,226.26Z" style="fill:#4CD6E5"></path><path d="M344.29,226.26c-6.72,1.07-10.89,18.07-13.07,24.53-2.26,6.67.81,11.51,4.23,15.54h0a6.9,6.9,0,0,1,1.57,5.34L330,297.94c19.3,14.33,51.66,7.39,60.44,2.71a62,62,0,0,0-5.67-26.6,43.81,43.81,0,0,1-4.28-17.21l-.33-9.64,2.33-16.64-16.76-4-14.77-.66A58.78,58.78,0,0,0,344.29,226.26Z" style="opacity:0.4"></path><g style="isolation:isolate"><path d="M344.14,302.16v0h0a0,0,0,0,1,0,0s0,0,0-.06a77265801265.14,77265801265.14,0,0,0,0-.12l0-.06,0-.05,0-.06h0l-11.4-21.23,0-.06,0-.06,0-.06-.05-.07,0-.07a163246272339.33,163246272339.33,0,0,1-.1-.14l-.06-.06-.05-.07,0-.05,0-.05,0-.05,0,0,0,0,0,0,0,0,0,0,0,0,0,0,0,0,0,0,0,0,0,0,0,0,0,0,0,0,0,0,0,0,0,0,0,0,0,0,0,0,0,0,0,0,0,0,0,0-.17-.15,0,0,0,0,0,0,0,0,0,0,0,0,0,0,0,0,0,0,0,0,0,0,0,0h0l0,0,0,0,0,0,0,0,0,0,0,0,0,0,0,0,0,0,0,0,0,0,0,0,0,0-.06,0-.05,0-.06,0-.07,0-.07-.05-.08,0,0,0L317,270.74l0,0-.08,0-.07,0-.08,0-.07,0-.07,0-.07,0-.06,0-.07,0-.08,0h-.07l-.08,0H316a.31.31,0,0,0-.2.08l-1.56,1.79h.05c-.13.1-.14.31.05.66l11.4,21.23a7.35,7.35,0,0,0,2.52,2.38l13.11,7.38c.67.38,1.08.39,1.14.11,0,0,0,.1,0,.12h0l1.57-1.79a.2.2,0,0,0,0-.08.17.17,0,0,0,0-.07Zm-29.56-29.92s0,0,.09,0h0l.05,0Zm15,8.47c.12.1.25.2.36.31h0C329.86,280.91,329.73,280.81,329.61,280.71Zm.82.8.16.17h0ZM342.57,304a1.17,1.17,0,0,0-.14-.43,1.24,1.24,0,0,1,.14.39h0S342.56,303.94,342.57,304Z" style="fill:#455a64"></path></g><path d="M344.14,302.16v0h0a0,0,0,0,1,0,0s0,0,0-.06a77265801265.14,77265801265.14,0,0,0,0-.12l0-.06,0-.05,0-.06h0l-11.4-21.23L331,282.3l11.41,21.23a1.24,1.24,0,0,1,.14.39h0a.26.26,0,0,1-.05.24h0l1.57-1.79a.2.2,0,0,0,0-.08.17.17,0,0,0,0-.07Z" style="fill:#fff;opacity:0.15"></path><path d="M332.55,280.45l0-.06,0-.06-.05-.07,0-.07a163246272339.33,163246272339.33,0,0,1-.1-.14l-.06-.06-.05-.07,0-.05,0-.05,0-.05,0,0,0,0,0,0,0,0,0,0,0,0,0,0,0,0,0,0,0,0,0,0,0,0,0,0,0,0,0,0,0,0,0,0,0,0,0,0,0,0,0,0,0,0,0,0,0,0-.17-.15,0,0,0,0,0,0,0,0,0,0,0,0,0,0,0,0,0,0,0,0,0,0,0,0h0l0,0,0,0,0,0,0,0,0,0,0,0,0,0,0,0,0,0,0,0,0,0,0,0,0,0-.06,0-.05,0-.06,0-.07,0-.07-.05-.08,0,0,0L317,270.74l0,0-.08,0-.07,0-.08,0-.07,0-.07,0-.07,0-.06,0-.07,0-.08,0h-.07l-.08,0H316a.31.31,0,0,0-.2.08l-1.56,1.79q.11-.12.39-.06h0a2.77,2.77,0,0,1,.72.3l13.11,7.38a5.33,5.33,0,0,1,.75.49h0a8.42,8.42,0,0,1,.72.62h0a6.32,6.32,0,0,1,.62.66h0a3.89,3.89,0,0,1,.43.62l1.57-1.79Z" style="fill:#fff;opacity:0.2"></path><path d="M388.92,236.12c-1.86-3.19-4.3-5.64-8-5.92,0,0-6,3.12-6,17.28l.4,35.43h0c-.87.35-1.74.72-2.6,1.08a106,106,0,0,1-22.79,6.89A22.51,22.51,0,0,0,335.55,286l1.93,3.6c-3.66,2.35-11.94-1.88-11.94-1.88-.61,5.16,2.74,10.52,7.18,13.23s46.78-1.27,55.76-7.08c5.91-3.82,4.51-40.35,4.51-40.35A30.56,30.56,0,0,0,388.92,236.12Z" style="fill:#c48281"></path><path d="M316.59,277a24.48,24.48,0,0,0-.48,4.23,15.49,15.49,0,0,0,4.08,9.06,4.6,4.6,0,0,0,1.76,1.24,2,2,0,0,0,2-.32,3.07,3.07,0,0,0,.71-2.13,11.25,11.25,0,0,0-.19-3.43,4.75,4.75,0,0,0-1.81-2.85,10.22,10.22,0,0,0-2.29-1,5.6,5.6,0,0,1-2-1.48Z" style="fill:#c48281"></path><path d="M350.91,219.33v13.38c-1.31,1.24-2.57,2.66-2.69,4.43a4.62,4.62,0,0,0,2.39,4.17,6.51,6.51,0,0,0,4.92.48,11.22,11.22,0,0,0,4.35-2.52,18.08,18.08,0,0,0,5.8-12.7V213Z" style="fill:#c48281"></path><path d="M365.11,213c-1.4,7.36-4.27,13.74-14.2,16v-9.72Z" style="fill:#ab6160"></path><path d="M361.64,205.26a14.54,14.54,0,0,0,0,3.55,4.2,4.2,0,0,0,1.27,2.32,2.65,2.65,0,0,0,2.42.61,4.63,4.63,0,0,1,8.89-2.56,5.78,5.78,0,0,1-.77,4.85,11,11,0,0,1-3.73,3.38,3.91,3.91,0,0,1-4.74-1.64c-4.27,5.89-11.94,10.49-19.31,10.17A10.52,10.52,0,0,1,340,224.2c-2.86-2-3.2-5.27-3.68-8.47a45.07,45.07,0,0,1-.41-12.22c.67-5.62,2.93-11.22,7.12-15C346,200.53,357.34,204.54,361.64,205.26Z" style="fill:#c48281"></path><polygon points="346.28 204.5 341.5 210.91 346.25 212.33 346.28 204.5" style="fill:#ab6160"></polygon><path d="M350.67,215.18l-3.87,1.4a2.43,2.43,0,0,0,2.71,1.08A2.18,2.18,0,0,0,350.67,215.18Z" style="fill:#ab6160"></path><path d="M350.67,215.18l-3.87,1.4a2.43,2.43,0,0,0,2.71,1.08A2.18,2.18,0,0,0,350.67,215.18Z" style="opacity:0.30000000000000004"></path><path d="M348.22,217.65a2.27,2.27,0,0,0,1.29,0,2,2,0,0,0,1.18-1.83,2.23,2.23,0,0,0-2.47,1.82Z" style="fill:#ab6160"></path><path d="M353.26,205.51a1.4,1.4,0,1,1-1.39-1.4A1.39,1.39,0,0,1,353.26,205.51Z" style="fill:#263238"></path><path d="M341.53,205a1.41,1.41,0,0,1-1.41,1.39,1.4,1.4,0,0,1,0-2.8A1.41,1.41,0,0,1,341.53,205Z" style="fill:#263238"></path><path d="M340.19,199.44l-3.11,2.13a2,2,0,0,1,.62-2.19A2.36,2.36,0,0,1,340.19,199.44Z" style="fill:#263238"></path><path d="M352.16,199.32l3.09,2.16a2,2,0,0,0-.59-2.2A2.37,2.37,0,0,0,352.16,199.32Z" style="fill:#263238"></path></g></svg>